<?xml version="1.0" encoding="utf-8"?>
<svg xmlns="http://www.w3.org/2000/svg" xmlns:xlink="http://www.w3.org/1999/xlink" width="600" height="400" viewBox="0 0 2400 1600">
<defs>
  <clipPath id="clip500">
    <rect x="0" y="0" width="2400" height="1600"/>
  </clipPath>
</defs>
<path clip-path="url(#clip500)" d="
M0 1600 L2400 1600 L2400 0 L0 0  Z
  " fill="#ffffff" fill-rule="evenodd" fill-opacity="1"/>
<defs>
  <clipPath id="clip501">
    <rect x="480" y="0" width="1681" height="1600"/>
  </clipPath>
</defs>
<path clip-path="url(#clip500)" d="
M226.232 1423.18 L2352.76 1423.18 L2352.76 123.472 L226.232 123.472  Z
  " fill="#ffffff" fill-rule="evenodd" fill-opacity="1"/>
<defs>
  <clipPath id="clip502">
    <rect x="226" y="123" width="2128" height="1301"/>
  </clipPath>
</defs>
<polyline clip-path="url(#clip502)" style="stroke:#000000; stroke-width:2; stroke-opacity:0.1; fill:none" points="
  226.232,1423.18 226.232,123.472 
  "/>
<polyline clip-path="url(#clip502)" style="stroke:#000000; stroke-width:2; stroke-opacity:0.1; fill:none" points="
  651.537,1423.18 651.537,123.472 
  "/>
<polyline clip-path="url(#clip502)" style="stroke:#000000; stroke-width:2; stroke-opacity:0.1; fill:none" points="
  1076.84,1423.18 1076.84,123.472 
  "/>
<polyline clip-path="url(#clip502)" style="stroke:#000000; stroke-width:2; stroke-opacity:0.1; fill:none" points="
  1502.15,1423.18 1502.15,123.472 
  "/>
<polyline clip-path="url(#clip502)" style="stroke:#000000; stroke-width:2; stroke-opacity:0.1; fill:none" points="
  1927.45,1423.18 1927.45,123.472 
  "/>
<polyline clip-path="url(#clip502)" style="stroke:#000000; stroke-width:2; stroke-opacity:0.1; fill:none" points="
  2352.76,1423.18 2352.76,123.472 
  "/>
<polyline clip-path="url(#clip500)" style="stroke:#000000; stroke-width:4; stroke-opacity:1; fill:none" points="
  226.232,1423.18 2352.76,1423.18 
  "/>
<polyline clip-path="url(#clip500)" style="stroke:#000000; stroke-width:4; stroke-opacity:1; fill:none" points="
  226.232,1423.18 226.232,1407.58 
  "/>
<polyline clip-path="url(#clip500)" style="stroke:#000000; stroke-width:4; stroke-opacity:1; fill:none" points="
  651.537,1423.18 651.537,1407.58 
  "/>
<polyline clip-path="url(#clip500)" style="stroke:#000000; stroke-width:4; stroke-opacity:1; fill:none" points="
  1076.84,1423.18 1076.84,1407.58 
  "/>
<polyline clip-path="url(#clip500)" style="stroke:#000000; stroke-width:4; stroke-opacity:1; fill:none" points="
  1502.15,1423.18 1502.15,1407.58 
  "/>
<polyline clip-path="url(#clip500)" style="stroke:#000000; stroke-width:4; stroke-opacity:1; fill:none" points="
  1927.45,1423.18 1927.45,1407.58 
  "/>
<polyline clip-path="url(#clip500)" style="stroke:#000000; stroke-width:4; stroke-opacity:1; fill:none" points="
  2352.76,1423.18 2352.76,1407.58 
  "/>
<path clip-path="url(#clip500)" d="M 0 0 M226.232 1452.37 Q222.621 1452.37 220.792 1455.94 Q218.987 1459.48 218.987 1466.61 Q218.987 1473.71 220.792 1477.28 Q222.621 1480.82 226.232 1480.82 Q229.866 1480.82 231.672 1477.28 Q233.5 1473.71 233.5 1466.61 Q233.5 1459.48 231.672 1455.94 Q229.866 1452.37 226.232 1452.37 M226.232 1448.67 Q232.042 1448.67 235.098 1453.27 Q238.176 1457.86 238.176 1466.61 Q238.176 1475.33 235.098 1479.94 Q232.042 1484.52 226.232 1484.52 Q220.422 1484.52 217.343 1479.94 Q214.288 1475.33 214.288 1466.61 Q214.288 1457.86 217.343 1453.27 Q220.422 1448.67 226.232 1448.67 Z" fill="#000000" fill-rule="evenodd" fill-opacity="1" /><path clip-path="url(#clip500)" d="M 0 0 M632.683 1479.92 L649.002 1479.92 L649.002 1483.85 L627.058 1483.85 L627.058 1479.92 Q629.72 1477.16 634.303 1472.53 Q638.91 1467.88 640.09 1466.54 Q642.335 1464.01 643.215 1462.28 Q644.118 1460.52 644.118 1458.83 Q644.118 1456.07 642.173 1454.34 Q640.252 1452.6 637.15 1452.6 Q634.951 1452.6 632.498 1453.37 Q630.067 1454.13 627.289 1455.68 L627.289 1450.96 Q630.113 1449.82 632.567 1449.25 Q635.021 1448.67 637.058 1448.67 Q642.428 1448.67 645.622 1451.35 Q648.817 1454.04 648.817 1458.53 Q648.817 1460.66 648.007 1462.58 Q647.22 1464.48 645.113 1467.07 Q644.534 1467.74 641.433 1470.96 Q638.331 1474.15 632.683 1479.92 Z" fill="#000000" fill-rule="evenodd" fill-opacity="1" /><path clip-path="url(#clip500)" d="M 0 0 M664.071 1452.37 Q660.46 1452.37 658.632 1455.94 Q656.826 1459.48 656.826 1466.61 Q656.826 1473.71 658.632 1477.28 Q660.46 1480.82 664.071 1480.82 Q667.706 1480.82 669.511 1477.28 Q671.34 1473.71 671.34 1466.61 Q671.34 1459.48 669.511 1455.94 Q667.706 1452.37 664.071 1452.37 M664.071 1448.67 Q669.882 1448.67 672.937 1453.27 Q676.016 1457.86 676.016 1466.61 Q676.016 1475.33 672.937 1479.94 Q669.882 1484.52 664.071 1484.52 Q658.261 1484.52 655.183 1479.94 Q652.127 1475.33 652.127 1466.61 Q652.127 1457.86 655.183 1453.27 Q658.261 1448.67 664.071 1448.67 Z" fill="#000000" fill-rule="evenodd" fill-opacity="1" /><path clip-path="url(#clip500)" d="M 0 0 M1066.34 1453.37 L1054.54 1471.81 L1066.34 1471.81 L1066.34 1453.37 M1065.12 1449.29 L1071 1449.29 L1071 1471.81 L1075.93 1471.81 L1075.93 1475.7 L1071 1475.7 L1071 1483.85 L1066.34 1483.85 L1066.34 1475.7 L1050.74 1475.7 L1050.74 1471.19 L1065.12 1449.29 Z" fill="#000000" fill-rule="evenodd" fill-opacity="1" /><path clip-path="url(#clip500)" d="M 0 0 M1091 1452.37 Q1087.39 1452.37 1085.56 1455.94 Q1083.75 1459.48 1083.75 1466.61 Q1083.75 1473.71 1085.56 1477.28 Q1087.39 1480.82 1091 1480.82 Q1094.63 1480.82 1096.44 1477.28 Q1098.27 1473.71 1098.27 1466.61 Q1098.27 1459.48 1096.44 1455.94 Q1094.63 1452.37 1091 1452.37 M1091 1448.67 Q1096.81 1448.67 1099.86 1453.27 Q1102.94 1457.86 1102.94 1466.61 Q1102.94 1475.33 1099.86 1479.94 Q1096.81 1484.52 1091 1484.52 Q1085.19 1484.52 1082.11 1479.94 Q1079.05 1475.33 1079.05 1466.61 Q1079.05 1457.86 1082.11 1453.27 Q1085.19 1448.67 1091 1448.67 Z" fill="#000000" fill-rule="evenodd" fill-opacity="1" /><path clip-path="url(#clip500)" d="M 0 0 M1489.04 1464.71 Q1485.9 1464.71 1484.04 1466.86 Q1482.22 1469.01 1482.22 1472.76 Q1482.22 1476.49 1484.04 1478.67 Q1485.9 1480.82 1489.04 1480.82 Q1492.19 1480.82 1494.02 1478.67 Q1495.87 1476.49 1495.87 1472.76 Q1495.87 1469.01 1494.02 1466.86 Q1492.19 1464.71 1489.04 1464.71 M1498.33 1450.06 L1498.33 1454.31 Q1496.57 1453.48 1494.76 1453.04 Q1492.98 1452.6 1491.22 1452.6 Q1486.59 1452.6 1484.14 1455.73 Q1481.71 1458.85 1481.36 1465.17 Q1482.73 1463.16 1484.79 1462.09 Q1486.85 1461 1489.32 1461 Q1494.53 1461 1497.54 1464.18 Q1500.57 1467.32 1500.57 1472.76 Q1500.57 1478.09 1497.42 1481.31 Q1494.28 1484.52 1489.04 1484.52 Q1483.05 1484.52 1479.88 1479.94 Q1476.71 1475.33 1476.71 1466.61 Q1476.71 1458.41 1480.6 1453.55 Q1484.48 1448.67 1491.04 1448.67 Q1492.79 1448.67 1494.58 1449.01 Q1496.38 1449.36 1498.33 1450.06 Z" fill="#000000" fill-rule="evenodd" fill-opacity="1" /><path clip-path="url(#clip500)" d="M 0 0 M1515.64 1452.37 Q1512.03 1452.37 1510.2 1455.94 Q1508.4 1459.48 1508.4 1466.61 Q1508.4 1473.71 1510.2 1477.28 Q1512.03 1480.82 1515.64 1480.82 Q1519.28 1480.82 1521.08 1477.28 Q1522.91 1473.71 1522.91 1466.61 Q1522.91 1459.48 1521.08 1455.94 Q1519.28 1452.37 1515.64 1452.37 M1515.64 1448.67 Q1521.45 1448.67 1524.51 1453.27 Q1527.59 1457.86 1527.59 1466.61 Q1527.59 1475.33 1524.51 1479.94 Q1521.45 1484.52 1515.64 1484.52 Q1509.83 1484.52 1506.75 1479.94 Q1503.7 1475.33 1503.7 1466.61 Q1503.7 1457.86 1506.75 1453.27 Q1509.83 1448.67 1515.64 1448.67 Z" fill="#000000" fill-rule="evenodd" fill-opacity="1" /><path clip-path="url(#clip500)" d="M 0 0 M1913.94 1467.44 Q1910.61 1467.44 1908.69 1469.22 Q1906.79 1471 1906.79 1474.13 Q1906.79 1477.25 1908.69 1479.04 Q1910.61 1480.82 1913.94 1480.82 Q1917.28 1480.82 1919.2 1479.04 Q1921.12 1477.23 1921.12 1474.13 Q1921.12 1471 1919.2 1469.22 Q1917.3 1467.44 1913.94 1467.44 M1909.27 1465.45 Q1906.26 1464.71 1904.57 1462.65 Q1902.9 1460.59 1902.9 1457.63 Q1902.9 1453.48 1905.84 1451.07 Q1908.81 1448.67 1913.94 1448.67 Q1919.11 1448.67 1922.05 1451.07 Q1924.99 1453.48 1924.99 1457.63 Q1924.99 1460.59 1923.3 1462.65 Q1921.63 1464.71 1918.64 1465.45 Q1922.02 1466.24 1923.9 1468.53 Q1925.8 1470.82 1925.8 1474.13 Q1925.8 1479.15 1922.72 1481.84 Q1919.66 1484.52 1913.94 1484.52 Q1908.23 1484.52 1905.15 1481.84 Q1902.09 1479.15 1902.09 1474.13 Q1902.09 1470.82 1903.99 1468.53 Q1905.89 1466.24 1909.27 1465.45 M1907.56 1458.06 Q1907.56 1460.75 1909.22 1462.25 Q1910.91 1463.76 1913.94 1463.76 Q1916.95 1463.76 1918.64 1462.25 Q1920.36 1460.75 1920.36 1458.06 Q1920.36 1455.38 1918.64 1453.88 Q1916.95 1452.37 1913.94 1452.37 Q1910.91 1452.37 1909.22 1453.88 Q1907.56 1455.38 1907.56 1458.06 Z" fill="#000000" fill-rule="evenodd" fill-opacity="1" /><path clip-path="url(#clip500)" d="M 0 0 M1940.87 1452.37 Q1937.25 1452.37 1935.43 1455.94 Q1933.62 1459.48 1933.62 1466.61 Q1933.62 1473.71 1935.43 1477.28 Q1937.25 1480.82 1940.87 1480.82 Q1944.5 1480.82 1946.31 1477.28 Q1948.13 1473.71 1948.13 1466.61 Q1948.13 1459.48 1946.31 1455.94 Q1944.5 1452.37 1940.87 1452.37 M1940.87 1448.67 Q1946.68 1448.67 1949.73 1453.27 Q1952.81 1457.86 1952.81 1466.61 Q1952.81 1475.33 1949.73 1479.94 Q1946.68 1484.52 1940.87 1484.52 Q1935.06 1484.52 1931.98 1479.94 Q1928.92 1475.33 1928.92 1466.61 Q1928.92 1457.86 1931.98 1453.27 Q1935.06 1448.67 1940.87 1448.67 Z" fill="#000000" fill-rule="evenodd" fill-opacity="1" /><path clip-path="url(#clip500)" d="M 0 0 M2316.12 1479.92 L2323.76 1479.92 L2323.76 1453.55 L2315.45 1455.22 L2315.45 1450.96 L2323.72 1449.29 L2328.39 1449.29 L2328.39 1479.92 L2336.03 1479.92 L2336.03 1483.85 L2316.12 1483.85 L2316.12 1479.92 Z" fill="#000000" fill-rule="evenodd" fill-opacity="1" /><path clip-path="url(#clip500)" d="M 0 0 M2351.1 1452.37 Q2347.49 1452.37 2345.66 1455.94 Q2343.86 1459.48 2343.86 1466.61 Q2343.86 1473.71 2345.66 1477.28 Q2347.49 1480.82 2351.1 1480.82 Q2354.74 1480.82 2356.54 1477.28 Q2358.37 1473.71 2358.37 1466.61 Q2358.37 1459.48 2356.54 1455.94 Q2354.74 1452.37 2351.1 1452.37 M2351.1 1448.67 Q2356.91 1448.67 2359.97 1453.27 Q2363.05 1457.86 2363.05 1466.61 Q2363.05 1475.33 2359.97 1479.94 Q2356.91 1484.52 2351.1 1484.52 Q2345.29 1484.52 2342.21 1479.94 Q2339.16 1475.33 2339.16 1466.61 Q2339.16 1457.86 2342.21 1453.27 Q2345.29 1448.67 2351.1 1448.67 Z" fill="#000000" fill-rule="evenodd" fill-opacity="1" /><path clip-path="url(#clip500)" d="M 0 0 M2378.11 1452.37 Q2374.5 1452.37 2372.67 1455.94 Q2370.87 1459.48 2370.87 1466.61 Q2370.87 1473.71 2372.67 1477.28 Q2374.5 1480.82 2378.11 1480.82 Q2381.75 1480.82 2383.55 1477.28 Q2385.38 1473.71 2385.38 1466.61 Q2385.38 1459.48 2383.55 1455.94 Q2381.75 1452.37 2378.11 1452.37 M2378.11 1448.67 Q2383.92 1448.67 2386.98 1453.27 Q2390.06 1457.86 2390.06 1466.61 Q2390.06 1475.33 2386.98 1479.94 Q2383.92 1484.52 2378.11 1484.52 Q2372.3 1484.52 2369.23 1479.94 Q2366.17 1475.33 2366.17 1466.61 Q2366.17 1457.86 2369.23 1453.27 Q2372.3 1448.67 2378.11 1448.67 Z" fill="#000000" fill-rule="evenodd" fill-opacity="1" /><path clip-path="url(#clip500)" d="M 0 0 M1217.1 1508.52 L1257.3 1508.52 L1257.3 1513.93 L1240.43 1513.93 L1240.43 1556.04 L1233.97 1556.04 L1233.97 1513.93 L1217.1 1513.93 L1217.1 1508.52 Z" fill="#000000" fill-rule="evenodd" fill-opacity="1" /><path clip-path="url(#clip500)" d="M 0 0 M1261.44 1520.4 L1267.29 1520.4 L1267.29 1556.04 L1261.44 1556.04 L1261.44 1520.4 M1261.44 1506.52 L1267.29 1506.52 L1267.29 1513.93 L1261.44 1513.93 L1261.44 1506.52 Z" fill="#000000" fill-rule="evenodd" fill-opacity="1" /><path clip-path="url(#clip500)" d="M 0 0 M1301.19 1527.24 Q1303.39 1523.29 1306.44 1521.41 Q1309.5 1519.54 1313.64 1519.54 Q1319.21 1519.54 1322.23 1523.45 Q1325.25 1527.33 1325.25 1534.53 L1325.25 1556.04 L1319.37 1556.04 L1319.37 1534.72 Q1319.37 1529.59 1317.55 1527.11 Q1315.74 1524.63 1312.01 1524.63 Q1307.46 1524.63 1304.82 1527.65 Q1302.18 1530.68 1302.18 1535.9 L1302.18 1556.04 L1296.29 1556.04 L1296.29 1534.72 Q1296.29 1529.56 1294.48 1527.11 Q1292.66 1524.63 1288.87 1524.63 Q1284.39 1524.63 1281.74 1527.68 Q1279.1 1530.71 1279.1 1535.9 L1279.1 1556.04 L1273.21 1556.04 L1273.21 1520.4 L1279.1 1520.4 L1279.1 1525.93 Q1281.11 1522.66 1283.91 1521.1 Q1286.71 1519.54 1290.56 1519.54 Q1294.44 1519.54 1297.15 1521.51 Q1299.89 1523.48 1301.19 1527.24 Z" fill="#000000" fill-rule="evenodd" fill-opacity="1" /><path clip-path="url(#clip500)" d="M 0 0 M1361.89 1536.76 L1361.89 1539.62 L1334.96 1539.62 Q1335.34 1545.67 1338.59 1548.85 Q1341.87 1552 1347.69 1552 Q1351.07 1552 1354.22 1551.17 Q1357.4 1550.35 1360.52 1548.69 L1360.52 1554.23 Q1357.37 1555.57 1354.06 1556.27 Q1350.75 1556.97 1347.34 1556.97 Q1338.81 1556.97 1333.82 1552 Q1328.85 1547.04 1328.85 1538.57 Q1328.85 1529.82 1333.56 1524.69 Q1338.3 1519.54 1346.32 1519.54 Q1353.52 1519.54 1357.69 1524.18 Q1361.89 1528.8 1361.89 1536.76 M1356.03 1535.04 Q1355.97 1530.23 1353.33 1527.37 Q1350.72 1524.5 1346.39 1524.5 Q1341.49 1524.5 1338.53 1527.27 Q1335.6 1530.04 1335.15 1535.07 L1356.03 1535.04 Z" fill="#000000" fill-rule="evenodd" fill-opacity="1" /><polyline clip-path="url(#clip502)" style="stroke:#000000; stroke-width:2; stroke-opacity:0.1; fill:none" points="
  226.232,1387.12 2352.76,1387.12 
  "/>
<polyline clip-path="url(#clip502)" style="stroke:#000000; stroke-width:2; stroke-opacity:0.1; fill:none" points="
  226.232,1075.56 2352.76,1075.56 
  "/>
<polyline clip-path="url(#clip502)" style="stroke:#000000; stroke-width:2; stroke-opacity:0.1; fill:none" points="
  226.232,764.004 2352.76,764.004 
  "/>
<polyline clip-path="url(#clip502)" style="stroke:#000000; stroke-width:2; stroke-opacity:0.1; fill:none" points="
  226.232,452.446 2352.76,452.446 
  "/>
<polyline clip-path="url(#clip502)" style="stroke:#000000; stroke-width:2; stroke-opacity:0.1; fill:none" points="
  226.232,140.888 2352.76,140.888 
  "/>
<polyline clip-path="url(#clip500)" style="stroke:#000000; stroke-width:4; stroke-opacity:1; fill:none" points="
  226.232,1423.18 226.232,123.472 
  "/>
<polyline clip-path="url(#clip500)" style="stroke:#000000; stroke-width:4; stroke-opacity:1; fill:none" points="
  226.232,1387.12 251.75,1387.12 
  "/>
<polyline clip-path="url(#clip500)" style="stroke:#000000; stroke-width:4; stroke-opacity:1; fill:none" points="
  226.232,1075.56 251.75,1075.56 
  "/>
<polyline clip-path="url(#clip500)" style="stroke:#000000; stroke-width:4; stroke-opacity:1; fill:none" points="
  226.232,764.004 251.75,764.004 
  "/>
<polyline clip-path="url(#clip500)" style="stroke:#000000; stroke-width:4; stroke-opacity:1; fill:none" points="
  226.232,452.446 251.75,452.446 
  "/>
<polyline clip-path="url(#clip500)" style="stroke:#000000; stroke-width:4; stroke-opacity:1; fill:none" points="
  226.232,140.888 251.75,140.888 
  "/>
<path clip-path="url(#clip500)" d="M 0 0 M178.288 1372.92 Q174.677 1372.92 172.848 1376.48 Q171.042 1380.03 171.042 1387.16 Q171.042 1394.26 172.848 1397.83 Q174.677 1401.37 178.288 1401.37 Q181.922 1401.37 183.727 1397.83 Q185.556 1394.26 185.556 1387.16 Q185.556 1380.03 183.727 1376.48 Q181.922 1372.92 178.288 1372.92 M178.288 1369.22 Q184.098 1369.22 187.153 1373.82 Q190.232 1378.41 190.232 1387.16 Q190.232 1395.88 187.153 1400.49 Q184.098 1405.07 178.288 1405.07 Q172.477 1405.07 169.399 1400.49 Q166.343 1395.88 166.343 1387.16 Q166.343 1378.41 169.399 1373.82 Q172.477 1369.22 178.288 1369.22 Z" fill="#000000" fill-rule="evenodd" fill-opacity="1" /><path clip-path="url(#clip500)" d="M 0 0 M142.316 1058.28 L160.672 1058.28 L160.672 1062.22 L146.598 1062.22 L146.598 1070.69 Q147.616 1070.34 148.635 1070.18 Q149.653 1070 150.672 1070 Q156.459 1070 159.839 1073.17 Q163.218 1076.34 163.218 1081.75 Q163.218 1087.33 159.746 1090.44 Q156.274 1093.51 149.954 1093.51 Q147.778 1093.51 145.51 1093.14 Q143.265 1092.77 140.857 1092.03 L140.857 1087.33 Q142.941 1088.47 145.163 1089.02 Q147.385 1089.58 149.862 1089.58 Q153.866 1089.58 156.204 1087.47 Q158.542 1085.37 158.542 1081.75 Q158.542 1078.14 156.204 1076.04 Q153.866 1073.93 149.862 1073.93 Q147.987 1073.93 146.112 1074.35 Q144.26 1074.76 142.316 1075.64 L142.316 1058.28 Z" fill="#000000" fill-rule="evenodd" fill-opacity="1" /><path clip-path="url(#clip500)" d="M 0 0 M178.288 1061.36 Q174.677 1061.36 172.848 1064.93 Q171.042 1068.47 171.042 1075.6 Q171.042 1082.7 172.848 1086.27 Q174.677 1089.81 178.288 1089.81 Q181.922 1089.81 183.727 1086.27 Q185.556 1082.7 185.556 1075.6 Q185.556 1068.47 183.727 1064.93 Q181.922 1061.36 178.288 1061.36 M178.288 1057.66 Q184.098 1057.66 187.153 1062.26 Q190.232 1066.85 190.232 1075.6 Q190.232 1084.32 187.153 1088.93 Q184.098 1093.51 178.288 1093.51 Q172.477 1093.51 169.399 1088.93 Q166.343 1084.32 166.343 1075.6 Q166.343 1066.85 169.399 1062.26 Q172.477 1057.66 178.288 1057.66 Z" fill="#000000" fill-rule="evenodd" fill-opacity="1" /><path clip-path="url(#clip500)" d="M 0 0 M116.297 777.349 L123.936 777.349 L123.936 750.983 L115.626 752.65 L115.626 748.391 L123.89 746.724 L128.566 746.724 L128.566 777.349 L136.204 777.349 L136.204 781.284 L116.297 781.284 L116.297 777.349 Z" fill="#000000" fill-rule="evenodd" fill-opacity="1" /><path clip-path="url(#clip500)" d="M 0 0 M151.274 749.803 Q147.663 749.803 145.834 753.368 Q144.029 756.909 144.029 764.039 Q144.029 771.145 145.834 774.71 Q147.663 778.252 151.274 778.252 Q154.908 778.252 156.714 774.71 Q158.542 771.145 158.542 764.039 Q158.542 756.909 156.714 753.368 Q154.908 749.803 151.274 749.803 M151.274 746.099 Q157.084 746.099 160.14 750.706 Q163.218 755.289 163.218 764.039 Q163.218 772.766 160.14 777.372 Q157.084 781.956 151.274 781.956 Q145.464 781.956 142.385 777.372 Q139.329 772.766 139.329 764.039 Q139.329 755.289 142.385 750.706 Q145.464 746.099 151.274 746.099 Z" fill="#000000" fill-rule="evenodd" fill-opacity="1" /><path clip-path="url(#clip500)" d="M 0 0 M178.288 749.803 Q174.677 749.803 172.848 753.368 Q171.042 756.909 171.042 764.039 Q171.042 771.145 172.848 774.71 Q174.677 778.252 178.288 778.252 Q181.922 778.252 183.727 774.71 Q185.556 771.145 185.556 764.039 Q185.556 756.909 183.727 753.368 Q181.922 749.803 178.288 749.803 M178.288 746.099 Q184.098 746.099 187.153 750.706 Q190.232 755.289 190.232 764.039 Q190.232 772.766 187.153 777.372 Q184.098 781.956 178.288 781.956 Q172.477 781.956 169.399 777.372 Q166.343 772.766 166.343 764.039 Q166.343 755.289 169.399 750.706 Q172.477 746.099 178.288 746.099 Z" fill="#000000" fill-rule="evenodd" fill-opacity="1" /><path clip-path="url(#clip500)" d="M 0 0 M117.293 465.791 L124.931 465.791 L124.931 439.425 L116.621 441.092 L116.621 436.833 L124.885 435.166 L129.561 435.166 L129.561 465.791 L137.2 465.791 L137.2 469.726 L117.293 469.726 L117.293 465.791 Z" fill="#000000" fill-rule="evenodd" fill-opacity="1" /><path clip-path="url(#clip500)" d="M 0 0 M142.316 435.166 L160.672 435.166 L160.672 439.101 L146.598 439.101 L146.598 447.573 Q147.616 447.226 148.635 447.064 Q149.653 446.879 150.672 446.879 Q156.459 446.879 159.839 450.05 Q163.218 453.221 163.218 458.638 Q163.218 464.217 159.746 467.319 Q156.274 470.397 149.954 470.397 Q147.778 470.397 145.51 470.027 Q143.265 469.657 140.857 468.916 L140.857 464.217 Q142.941 465.351 145.163 465.907 Q147.385 466.462 149.862 466.462 Q153.866 466.462 156.204 464.356 Q158.542 462.249 158.542 458.638 Q158.542 455.027 156.204 452.921 Q153.866 450.814 149.862 450.814 Q147.987 450.814 146.112 451.231 Q144.26 451.647 142.316 452.527 L142.316 435.166 Z" fill="#000000" fill-rule="evenodd" fill-opacity="1" /><path clip-path="url(#clip500)" d="M 0 0 M178.288 438.245 Q174.677 438.245 172.848 441.809 Q171.042 445.351 171.042 452.481 Q171.042 459.587 172.848 463.152 Q174.677 466.694 178.288 466.694 Q181.922 466.694 183.727 463.152 Q185.556 459.587 185.556 452.481 Q185.556 445.351 183.727 441.809 Q181.922 438.245 178.288 438.245 M178.288 434.541 Q184.098 434.541 187.153 439.147 Q190.232 443.731 190.232 452.481 Q190.232 461.208 187.153 465.814 Q184.098 470.397 178.288 470.397 Q172.477 470.397 169.399 465.814 Q166.343 461.208 166.343 452.481 Q166.343 443.731 169.399 439.147 Q172.477 434.541 178.288 434.541 Z" fill="#000000" fill-rule="evenodd" fill-opacity="1" /><path clip-path="url(#clip500)" d="M 0 0 M119.885 154.233 L136.204 154.233 L136.204 158.168 L114.26 158.168 L114.26 154.233 Q116.922 151.478 121.505 146.848 Q126.112 142.196 127.292 140.853 Q129.538 138.33 130.417 136.594 Q131.32 134.834 131.32 133.145 Q131.32 130.39 129.376 128.654 Q127.455 126.918 124.353 126.918 Q122.154 126.918 119.7 127.682 Q117.269 128.446 114.492 129.997 L114.492 125.274 Q117.316 124.14 119.769 123.561 Q122.223 122.983 124.26 122.983 Q129.63 122.983 132.825 125.668 Q136.019 128.353 136.019 132.844 Q136.019 134.973 135.209 136.895 Q134.422 138.793 132.316 141.385 Q131.737 142.057 128.635 145.274 Q125.533 148.469 119.885 154.233 Z" fill="#000000" fill-rule="evenodd" fill-opacity="1" /><path clip-path="url(#clip500)" d="M 0 0 M151.274 126.686 Q147.663 126.686 145.834 130.251 Q144.029 133.793 144.029 140.922 Q144.029 148.029 145.834 151.594 Q147.663 155.135 151.274 155.135 Q154.908 155.135 156.714 151.594 Q158.542 148.029 158.542 140.922 Q158.542 133.793 156.714 130.251 Q154.908 126.686 151.274 126.686 M151.274 122.983 Q157.084 122.983 160.14 127.589 Q163.218 132.172 163.218 140.922 Q163.218 149.649 160.14 154.256 Q157.084 158.839 151.274 158.839 Q145.464 158.839 142.385 154.256 Q139.329 149.649 139.329 140.922 Q139.329 132.172 142.385 127.589 Q145.464 122.983 151.274 122.983 Z" fill="#000000" fill-rule="evenodd" fill-opacity="1" /><path clip-path="url(#clip500)" d="M 0 0 M178.288 126.686 Q174.677 126.686 172.848 130.251 Q171.042 133.793 171.042 140.922 Q171.042 148.029 172.848 151.594 Q174.677 155.135 178.288 155.135 Q181.922 155.135 183.727 151.594 Q185.556 148.029 185.556 140.922 Q185.556 133.793 183.727 130.251 Q181.922 126.686 178.288 126.686 M178.288 122.983 Q184.098 122.983 187.153 127.589 Q190.232 132.172 190.232 140.922 Q190.232 149.649 187.153 154.256 Q184.098 158.839 178.288 158.839 Q172.477 158.839 169.399 154.256 Q166.343 149.649 166.343 140.922 Q166.343 132.172 169.399 127.589 Q172.477 122.983 178.288 122.983 Z" fill="#000000" fill-rule="evenodd" fill-opacity="1" /><path clip-path="url(#clip500)" d="M 0 0 M45.7677 978.668 L63.6235 978.668 L63.6235 970.583 Q63.6235 966.095 61.3 963.645 Q58.9765 961.194 54.6797 961.194 Q50.4147 961.194 48.0912 963.645 Q45.7677 966.095 45.7677 970.583 L45.7677 978.668 M40.4842 985.097 L40.4842 970.583 Q40.4842 962.594 44.1126 958.52 Q47.7092 954.414 54.6797 954.414 Q61.7138 954.414 65.3104 958.52 Q68.907 962.594 68.907 970.583 L68.907 978.668 L88.0042 978.668 L88.0042 985.097 L40.4842 985.097 Z" fill="#000000" fill-rule="evenodd" fill-opacity="1" /><path clip-path="url(#clip500)" d="M 0 0 M56.4621 936.781 Q56.4621 941.492 60.1542 944.229 Q63.8145 946.967 70.212 946.967 Q76.6095 946.967 80.3017 944.261 Q83.9619 941.524 83.9619 936.781 Q83.9619 932.103 80.2698 929.365 Q76.5777 926.628 70.212 926.628 Q63.8781 926.628 60.186 929.365 Q56.4621 932.103 56.4621 936.781 M51.4968 936.781 Q51.4968 929.143 56.4621 924.782 Q61.4273 920.422 70.212 920.422 Q78.9649 920.422 83.9619 924.782 Q88.9272 929.143 88.9272 936.781 Q88.9272 944.452 83.9619 948.813 Q78.9649 953.141 70.212 953.141 Q61.4273 953.141 56.4621 948.813 Q51.4968 944.452 51.4968 936.781 Z" fill="#000000" fill-rule="evenodd" fill-opacity="1" /><path clip-path="url(#clip500)" d="M 0 0 M82.657 908.613 L101.563 908.613 L101.563 914.501 L52.3562 914.501 L52.3562 908.613 L57.7671 908.613 Q54.5842 906.767 53.0564 903.966 Q51.4968 901.133 51.4968 897.219 Q51.4968 890.726 56.6531 886.683 Q61.8093 882.609 70.212 882.609 Q78.6147 882.609 83.771 886.683 Q88.9272 890.726 88.9272 897.219 Q88.9272 901.133 87.3994 903.966 Q85.8398 906.767 82.657 908.613 M70.212 888.689 Q63.7508 888.689 60.0905 891.362 Q56.3984 894.004 56.3984 898.651 Q56.3984 903.298 60.0905 905.971 Q63.7508 908.613 70.212 908.613 Q76.6732 908.613 80.3653 905.971 Q84.0256 903.298 84.0256 898.651 Q84.0256 894.004 80.3653 891.362 Q76.6732 888.689 70.212 888.689 Z" fill="#000000" fill-rule="evenodd" fill-opacity="1" /><path clip-path="url(#clip500)" d="M 0 0 M73.9359 877.071 L52.3562 877.071 L52.3562 871.215 L73.7131 871.215 Q78.7739 871.215 81.3202 869.241 Q83.8346 867.268 83.8346 863.321 Q83.8346 858.579 80.8109 855.841 Q77.7872 853.072 72.5673 853.072 L52.3562 853.072 L52.3562 847.216 L88.0042 847.216 L88.0042 853.072 L82.5296 853.072 Q85.7762 855.205 87.3676 858.038 Q88.9272 860.839 88.9272 864.562 Q88.9272 870.705 85.1078 873.888 Q81.2883 877.071 73.9359 877.071 M51.4968 862.334 L51.4968 862.334 Z" fill="#000000" fill-rule="evenodd" fill-opacity="1" /><path clip-path="url(#clip500)" d="M 0 0 M38.479 841.073 L38.479 835.217 L88.0042 835.217 L88.0042 841.073 L38.479 841.073 Z" fill="#000000" fill-rule="evenodd" fill-opacity="1" /><path clip-path="url(#clip500)" d="M 0 0 M70.0847 812.873 Q70.0847 819.971 71.7079 822.708 Q73.3312 825.445 77.2461 825.445 Q80.3653 825.445 82.2114 823.408 Q84.0256 821.339 84.0256 817.806 Q84.0256 812.937 80.5881 810.008 Q77.1188 807.048 71.3897 807.048 L70.0847 807.048 L70.0847 812.873 M67.6657 801.192 L88.0042 801.192 L88.0042 807.048 L82.5933 807.048 Q85.8398 809.054 87.3994 812.045 Q88.9272 815.037 88.9272 819.366 Q88.9272 824.84 85.8716 828.087 Q82.7843 831.302 77.6281 831.302 Q71.6125 831.302 68.5569 827.291 Q65.5014 823.249 65.5014 815.26 L65.5014 807.048 L64.9285 807.048 Q60.8862 807.048 58.6901 809.722 Q56.4621 812.364 56.4621 817.17 Q56.4621 820.225 57.1941 823.122 Q57.9262 826.018 59.3903 828.692 L53.9795 828.692 Q52.7381 825.477 52.1334 822.453 Q51.4968 819.43 51.4968 816.565 Q51.4968 808.831 55.5072 805.011 Q59.5176 801.192 67.6657 801.192 Z" fill="#000000" fill-rule="evenodd" fill-opacity="1" /><path clip-path="url(#clip500)" d="M 0 0 M42.2347 789.256 L52.3562 789.256 L52.3562 777.193 L56.9077 777.193 L56.9077 789.256 L76.2594 789.256 Q80.6199 789.256 81.8613 788.079 Q83.1026 786.869 83.1026 783.209 L83.1026 777.193 L88.0042 777.193 L88.0042 783.209 Q88.0042 789.988 85.4897 792.566 Q82.9434 795.144 76.2594 795.144 L56.9077 795.144 L56.9077 799.441 L52.3562 799.441 L52.3562 795.144 L42.2347 795.144 L42.2347 789.256 Z" fill="#000000" fill-rule="evenodd" fill-opacity="1" /><path clip-path="url(#clip500)" d="M 0 0 M52.3562 771.05 L52.3562 765.194 L88.0042 765.194 L88.0042 771.05 L52.3562 771.05 M38.479 771.05 L38.479 765.194 L45.895 765.194 L45.895 771.05 L38.479 771.05 Z" fill="#000000" fill-rule="evenodd" fill-opacity="1" /><path clip-path="url(#clip500)" d="M 0 0 M56.4621 745.237 Q56.4621 749.948 60.1542 752.685 Q63.8145 755.422 70.212 755.422 Q76.6095 755.422 80.3017 752.717 Q83.9619 749.98 83.9619 745.237 Q83.9619 740.559 80.2698 737.821 Q76.5777 735.084 70.212 735.084 Q63.8781 735.084 60.186 737.821 Q56.4621 740.559 56.4621 745.237 M51.4968 745.237 Q51.4968 737.598 56.4621 733.238 Q61.4273 728.877 70.212 728.877 Q78.9649 728.877 83.9619 733.238 Q88.9272 737.598 88.9272 745.237 Q88.9272 752.908 83.9619 757.268 Q78.9649 761.597 70.212 761.597 Q61.4273 761.597 56.4621 757.268 Q51.4968 752.908 51.4968 745.237 Z" fill="#000000" fill-rule="evenodd" fill-opacity="1" /><path clip-path="url(#clip500)" d="M 0 0 M66.4881 693.102 L88.0042 693.102 L88.0042 698.959 L66.679 698.959 Q61.6183 698.959 59.1038 700.932 Q56.5894 702.905 56.5894 706.852 Q56.5894 711.595 59.6131 714.332 Q62.6368 717.069 67.8567 717.069 L88.0042 717.069 L88.0042 722.957 L52.3562 722.957 L52.3562 717.069 L57.8944 717.069 Q54.6797 714.968 53.0883 712.136 Q51.4968 709.271 51.4968 705.547 Q51.4968 699.404 55.3163 696.253 Q59.1038 693.102 66.4881 693.102 Z" fill="#000000" fill-rule="evenodd" fill-opacity="1" /><path clip-path="url(#clip500)" d="M 0 0 M53.4065 643.513 L58.9447 643.513 Q57.6716 645.996 57.035 648.67 Q56.3984 651.343 56.3984 654.208 Q56.3984 658.568 57.7352 660.764 Q59.072 662.929 61.7456 662.929 Q63.7826 662.929 64.9603 661.369 Q66.1061 659.81 67.1565 655.099 L67.6021 653.094 Q68.9389 646.855 71.3897 644.245 Q73.8086 641.604 78.1691 641.604 Q83.1344 641.604 86.0308 645.55 Q88.9272 649.465 88.9272 656.34 Q88.9272 659.205 88.3543 662.324 Q87.8132 665.411 86.6992 668.849 L80.6518 668.849 Q82.3387 665.602 83.198 662.451 Q84.0256 659.3 84.0256 656.213 Q84.0256 652.075 82.6251 649.847 Q81.1929 647.619 78.6147 647.619 Q76.2276 647.619 74.9545 649.242 Q73.6813 650.834 72.5037 656.277 L72.0262 658.314 Q70.8804 663.756 68.5251 666.175 Q66.138 668.594 62.0002 668.594 Q56.9713 668.594 54.2341 665.029 Q51.4968 661.465 51.4968 654.908 Q51.4968 651.661 51.9743 648.797 Q52.4517 645.932 53.4065 643.513 Z" fill="#000000" fill-rule="evenodd" fill-opacity="1" /><path clip-path="url(#clip500)" d="M 0 0 M52.3562 635.461 L52.3562 629.604 L88.0042 629.604 L88.0042 635.461 L52.3562 635.461 M38.479 635.461 L38.479 629.604 L45.895 629.604 L45.895 635.461 L38.479 635.461 Z" fill="#000000" fill-rule="evenodd" fill-opacity="1" /><path clip-path="url(#clip500)" d="M 0 0 M52.3562 626.008 L52.3562 598.189 L57.7034 598.189 L83.3254 620.215 L83.3254 598.189 L88.0042 598.189 L88.0042 626.803 L82.657 626.803 L57.035 604.778 L57.035 626.008 L52.3562 626.008 Z" fill="#000000" fill-rule="evenodd" fill-opacity="1" /><path clip-path="url(#clip500)" d="M 0 0 M68.7161 561.555 L71.5806 561.555 L71.5806 588.482 Q77.6281 588.1 80.8109 584.853 Q83.9619 581.575 83.9619 575.75 Q83.9619 572.377 83.1344 569.226 Q82.3069 566.043 80.6518 562.923 L86.1899 562.923 Q87.5267 566.074 88.227 569.385 Q88.9272 572.695 88.9272 576.1 Q88.9272 584.631 83.9619 589.628 Q78.9967 594.593 70.5303 594.593 Q61.7774 594.593 56.6531 589.882 Q51.4968 585.14 51.4968 577.119 Q51.4968 569.926 56.1438 565.756 Q60.7589 561.555 68.7161 561.555 M66.9973 567.411 Q62.1912 567.475 59.3266 570.117 Q56.4621 572.727 56.4621 577.055 Q56.4621 581.957 59.2312 584.917 Q62.0002 587.845 67.0292 588.291 L66.9973 567.411 Z" fill="#000000" fill-rule="evenodd" fill-opacity="1" /><path clip-path="url(#clip500)" d="M 0 0 M635.881 12.096 L644.063 12.096 L644.063 65.6895 L673.513 65.6895 L673.513 72.576 L635.881 72.576 L635.881 12.096 Z" fill="#000000" fill-rule="evenodd" fill-opacity="1" /><path clip-path="url(#clip500)" d="M 0 0 M697.454 32.4315 Q691.459 32.4315 687.975 37.1306 Q684.491 41.7891 684.491 49.9314 Q684.491 58.0738 687.935 62.7728 Q691.418 67.4314 697.454 67.4314 Q703.409 67.4314 706.893 62.7323 Q710.377 58.0333 710.377 49.9314 Q710.377 41.8701 706.893 37.1711 Q703.409 32.4315 697.454 32.4315 M697.454 26.1121 Q707.176 26.1121 712.726 32.4315 Q718.276 38.7509 718.276 49.9314 Q718.276 61.0714 712.726 67.4314 Q707.176 73.7508 697.454 73.7508 Q687.692 73.7508 682.142 67.4314 Q676.633 61.0714 676.633 49.9314 Q676.633 38.7509 682.142 32.4315 Q687.692 26.1121 697.454 26.1121 Z" fill="#000000" fill-rule="evenodd" fill-opacity="1" /><path clip-path="url(#clip500)" d="M 0 0 M733.467 14.324 L733.467 27.2059 L748.82 27.2059 L748.82 32.9987 L733.467 32.9987 L733.467 57.6282 Q733.467 63.1779 734.966 64.7578 Q736.505 66.3376 741.164 66.3376 L748.82 66.3376 L748.82 72.576 L741.164 72.576 Q732.535 72.576 729.254 69.3758 Q725.973 66.1351 725.973 57.6282 L725.973 32.9987 L720.504 32.9987 L720.504 27.2059 L725.973 27.2059 L725.973 14.324 L733.467 14.324 Z" fill="#000000" fill-rule="evenodd" fill-opacity="1" /><path clip-path="url(#clip500)" d="M 0 0 M756.354 9.54393 L763.849 9.54393 L763.849 46.7717 L786.088 27.2059 L795.608 27.2059 L771.545 48.4326 L796.62 72.576 L786.898 72.576 L763.849 50.4176 L763.849 72.576 L756.354 72.576 L756.354 9.54393 Z" fill="#000000" fill-rule="evenodd" fill-opacity="1" /><path clip-path="url(#clip500)" d="M 0 0 M823.599 49.7694 Q814.566 49.7694 811.082 51.8354 Q807.598 53.9013 807.598 58.8839 Q807.598 62.8538 810.191 65.2034 Q812.824 67.5124 817.321 67.5124 Q823.518 67.5124 827.245 63.1374 Q831.013 58.7219 831.013 51.4303 L831.013 49.7694 L823.599 49.7694 M838.466 46.6907 L838.466 72.576 L831.013 72.576 L831.013 65.6895 Q828.461 69.8214 824.653 71.8063 Q820.845 73.7508 815.336 73.7508 Q808.368 73.7508 804.236 69.8619 Q800.145 65.9325 800.145 59.3701 Q800.145 51.7138 805.249 47.825 Q810.393 43.9361 820.561 43.9361 L831.013 43.9361 L831.013 43.2069 Q831.013 38.0623 827.61 35.2672 Q824.248 32.4315 818.131 32.4315 Q814.242 32.4315 810.556 33.3632 Q806.869 34.295 803.466 36.1584 L803.466 29.2718 Q807.558 27.692 811.406 26.9223 Q815.255 26.1121 818.9 26.1121 Q828.744 26.1121 833.605 31.2163 Q838.466 36.3204 838.466 46.6907 Z" fill="#000000" fill-rule="evenodd" fill-opacity="1" /><path clip-path="url(#clip500)" d="M 0 0 M842.517 46.5287 L864.352 46.5287 L864.352 53.1722 L842.517 53.1722 L842.517 46.5287 Z" fill="#000000" fill-rule="evenodd" fill-opacity="1" /><path clip-path="url(#clip500)" d="M 0 0 M883.229 72.576 L860.139 12.096 L868.686 12.096 L887.847 63.0159 L907.048 12.096 L915.555 12.096 L892.505 72.576 L883.229 72.576 Z" fill="#000000" fill-rule="evenodd" fill-opacity="1" /><path clip-path="url(#clip500)" d="M 0 0 M934.513 32.4315 Q928.518 32.4315 925.034 37.1306 Q921.55 41.7891 921.55 49.9314 Q921.55 58.0738 924.994 62.7728 Q928.477 67.4314 934.513 67.4314 Q940.468 67.4314 943.952 62.7323 Q947.436 58.0333 947.436 49.9314 Q947.436 41.8701 943.952 37.1711 Q940.468 32.4315 934.513 32.4315 M934.513 26.1121 Q944.235 26.1121 949.785 32.4315 Q955.335 38.7509 955.335 49.9314 Q955.335 61.0714 949.785 67.4314 Q944.235 73.7508 934.513 73.7508 Q924.751 73.7508 919.201 67.4314 Q913.692 61.0714 913.692 49.9314 Q913.692 38.7509 919.201 32.4315 Q924.751 26.1121 934.513 26.1121 Z" fill="#000000" fill-rule="evenodd" fill-opacity="1" /><path clip-path="url(#clip500)" d="M 0 0 M963.153 9.54393 L970.607 9.54393 L970.607 72.576 L963.153 72.576 L963.153 9.54393 Z" fill="#000000" fill-rule="evenodd" fill-opacity="1" /><path clip-path="url(#clip500)" d="M 0 0 M985.798 14.324 L985.798 27.2059 L1001.15 27.2059 L1001.15 32.9987 L985.798 32.9987 L985.798 57.6282 Q985.798 63.1779 987.296 64.7578 Q988.836 66.3376 993.494 66.3376 L1001.15 66.3376 L1001.15 72.576 L993.494 72.576 Q984.866 72.576 981.585 69.3758 Q978.303 66.1351 978.303 57.6282 L978.303 32.9987 L972.835 32.9987 L972.835 27.2059 L978.303 27.2059 L978.303 14.324 L985.798 14.324 Z" fill="#000000" fill-rule="evenodd" fill-opacity="1" /><path clip-path="url(#clip500)" d="M 0 0 M1047.78 48.0275 L1047.78 51.6733 L1013.51 51.6733 Q1013.99 59.3701 1018.12 63.421 Q1022.3 67.4314 1029.71 67.4314 Q1034 67.4314 1038.01 66.3781 Q1042.06 65.3249 1046.03 63.2184 L1046.03 70.267 Q1042.02 71.9684 1037.81 72.8596 Q1033.6 73.7508 1029.26 73.7508 Q1018.41 73.7508 1012.05 67.4314 Q1005.73 61.1119 1005.73 50.3365 Q1005.73 39.1965 1011.72 32.6746 Q1017.76 26.1121 1027.97 26.1121 Q1037.12 26.1121 1042.43 32.0264 Q1047.78 37.9003 1047.78 48.0275 M1040.32 45.84 Q1040.24 39.7232 1036.88 36.0774 Q1033.56 32.4315 1028.05 32.4315 Q1021.81 32.4315 1018.04 35.9558 Q1014.32 39.4801 1013.75 45.8805 L1040.32 45.84 Z" fill="#000000" fill-rule="evenodd" fill-opacity="1" /><path clip-path="url(#clip500)" d="M 0 0 M1081.89 34.1734 Q1080.63 33.4443 1079.13 33.1202 Q1077.67 32.7556 1075.89 32.7556 Q1069.57 32.7556 1066.17 36.8875 Q1062.81 40.9789 1062.81 48.6757 L1062.81 72.576 L1055.31 72.576 L1055.31 27.2059 L1062.81 27.2059 L1062.81 34.2544 Q1065.15 30.1225 1068.92 28.1376 Q1072.69 26.1121 1078.08 26.1121 Q1078.85 26.1121 1079.78 26.2337 Q1080.71 26.3147 1081.84 26.5172 L1081.89 34.1734 Z" fill="#000000" fill-rule="evenodd" fill-opacity="1" /><path clip-path="url(#clip500)" d="M 0 0 M1114.54 34.1734 Q1113.28 33.4443 1111.78 33.1202 Q1110.32 32.7556 1108.54 32.7556 Q1102.22 32.7556 1098.82 36.8875 Q1095.46 40.9789 1095.46 48.6757 L1095.46 72.576 L1087.96 72.576 L1087.96 27.2059 L1095.46 27.2059 L1095.46 34.2544 Q1097.81 30.1225 1101.57 28.1376 Q1105.34 26.1121 1110.73 26.1121 Q1111.5 26.1121 1112.43 26.2337 Q1113.36 26.3147 1114.49 26.5172 L1114.54 34.1734 Z" fill="#000000" fill-rule="evenodd" fill-opacity="1" /><path clip-path="url(#clip500)" d="M 0 0 M1142.97 49.7694 Q1133.94 49.7694 1130.46 51.8354 Q1126.97 53.9013 1126.97 58.8839 Q1126.97 62.8538 1129.56 65.2034 Q1132.2 67.5124 1136.69 67.5124 Q1142.89 67.5124 1146.62 63.1374 Q1150.39 58.7219 1150.39 51.4303 L1150.39 49.7694 L1142.97 49.7694 M1157.84 46.6907 L1157.84 72.576 L1150.39 72.576 L1150.39 65.6895 Q1147.83 69.8214 1144.03 71.8063 Q1140.22 73.7508 1134.71 73.7508 Q1127.74 73.7508 1123.61 69.8619 Q1119.52 65.9325 1119.52 59.3701 Q1119.52 51.7138 1124.62 47.825 Q1129.77 43.9361 1139.93 43.9361 L1150.39 43.9361 L1150.39 43.2069 Q1150.39 38.0623 1146.98 35.2672 Q1143.62 32.4315 1137.5 32.4315 Q1133.62 32.4315 1129.93 33.3632 Q1126.24 34.295 1122.84 36.1584 L1122.84 29.2718 Q1126.93 27.692 1130.78 26.9223 Q1134.63 26.1121 1138.27 26.1121 Q1148.12 26.1121 1152.98 31.2163 Q1157.84 36.3204 1157.84 46.6907 Z" fill="#000000" fill-rule="evenodd" fill-opacity="1" /><path clip-path="url(#clip500)" d="M 0 0 M1200.54 18.8205 L1200.54 41.5461 L1210.83 41.5461 Q1216.54 41.5461 1219.66 38.5889 Q1222.78 35.6318 1222.78 30.163 Q1222.78 24.7348 1219.66 21.7777 Q1216.54 18.8205 1210.83 18.8205 L1200.54 18.8205 M1192.35 12.096 L1210.83 12.096 Q1220.99 12.096 1226.18 16.714 Q1231.4 21.2916 1231.4 30.163 Q1231.4 39.1155 1226.18 43.6931 Q1220.99 48.2706 1210.83 48.2706 L1200.54 48.2706 L1200.54 72.576 L1192.35 72.576 L1192.35 12.096 Z" fill="#000000" fill-rule="evenodd" fill-opacity="1" /><path clip-path="url(#clip500)" d="M 0 0 M1264.05 34.1734 Q1262.8 33.4443 1261.3 33.1202 Q1259.84 32.7556 1258.06 32.7556 Q1251.74 32.7556 1248.34 36.8875 Q1244.97 40.9789 1244.97 48.6757 L1244.97 72.576 L1237.48 72.576 L1237.48 27.2059 L1244.97 27.2059 L1244.97 34.2544 Q1247.32 30.1225 1251.09 28.1376 Q1254.86 26.1121 1260.25 26.1121 Q1261.02 26.1121 1261.95 26.2337 Q1262.88 26.3147 1264.01 26.5172 L1264.05 34.1734 Z" fill="#000000" fill-rule="evenodd" fill-opacity="1" /><path clip-path="url(#clip500)" d="M 0 0 M1308.86 48.0275 L1308.86 51.6733 L1274.59 51.6733 Q1275.07 59.3701 1279.2 63.421 Q1283.38 67.4314 1290.79 67.4314 Q1295.08 67.4314 1299.09 66.3781 Q1303.15 65.3249 1307.12 63.2184 L1307.12 70.267 Q1303.1 71.9684 1298.89 72.8596 Q1294.68 73.7508 1290.34 73.7508 Q1279.49 73.7508 1273.13 67.4314 Q1266.81 61.1119 1266.81 50.3365 Q1266.81 39.1965 1272.8 32.6746 Q1278.84 26.1121 1289.05 26.1121 Q1298.2 26.1121 1303.51 32.0264 Q1308.86 37.9003 1308.86 48.0275 M1301.4 45.84 Q1301.32 39.7232 1297.96 36.0774 Q1294.64 32.4315 1289.13 32.4315 Q1282.89 32.4315 1279.12 35.9558 Q1275.4 39.4801 1274.83 45.8805 L1301.4 45.84 Z" fill="#000000" fill-rule="evenodd" fill-opacity="1" /><path clip-path="url(#clip500)" d="M 0 0 M1346.53 34.0924 L1346.53 9.54393 L1353.98 9.54393 L1353.98 72.576 L1346.53 72.576 L1346.53 65.7705 Q1344.18 69.8214 1340.58 71.8063 Q1337.01 73.7508 1331.99 73.7508 Q1323.76 73.7508 1318.58 67.1883 Q1313.43 60.6258 1313.43 49.9314 Q1313.43 39.2371 1318.58 32.6746 Q1323.76 26.1121 1331.99 26.1121 Q1337.01 26.1121 1340.58 28.0971 Q1344.18 30.0415 1346.53 34.0924 M1321.13 49.9314 Q1321.13 58.1548 1324.49 62.8538 Q1327.9 67.5124 1333.81 67.5124 Q1339.73 67.5124 1343.13 62.8538 Q1346.53 58.1548 1346.53 49.9314 Q1346.53 41.7081 1343.13 37.0496 Q1339.73 32.3505 1333.81 32.3505 Q1327.9 32.3505 1324.49 37.0496 Q1321.13 41.7081 1321.13 49.9314 Z" fill="#000000" fill-rule="evenodd" fill-opacity="1" /><path clip-path="url(#clip500)" d="M 0 0 M1382.42 49.7694 Q1373.39 49.7694 1369.9 51.8354 Q1366.42 53.9013 1366.42 58.8839 Q1366.42 62.8538 1369.01 65.2034 Q1371.65 67.5124 1376.14 67.5124 Q1382.34 67.5124 1386.07 63.1374 Q1389.83 58.7219 1389.83 51.4303 L1389.83 49.7694 L1382.42 49.7694 M1397.29 46.6907 L1397.29 72.576 L1389.83 72.576 L1389.83 65.6895 Q1387.28 69.8214 1383.47 71.8063 Q1379.67 73.7508 1374.16 73.7508 Q1367.19 73.7508 1363.06 69.8619 Q1358.97 65.9325 1358.97 59.3701 Q1358.97 51.7138 1364.07 47.825 Q1369.22 43.9361 1379.38 43.9361 L1389.83 43.9361 L1389.83 43.2069 Q1389.83 38.0623 1386.43 35.2672 Q1383.07 32.4315 1376.95 32.4315 Q1373.06 32.4315 1369.38 33.3632 Q1365.69 34.295 1362.29 36.1584 L1362.29 29.2718 Q1366.38 27.692 1370.23 26.9223 Q1374.08 26.1121 1377.72 26.1121 Q1387.57 26.1121 1392.43 31.2163 Q1397.29 36.3204 1397.29 46.6907 Z" fill="#000000" fill-rule="evenodd" fill-opacity="1" /><path clip-path="url(#clip500)" d="M 0 0 M1412.48 14.324 L1412.48 27.2059 L1427.83 27.2059 L1427.83 32.9987 L1412.48 32.9987 L1412.48 57.6282 Q1412.48 63.1779 1413.98 64.7578 Q1415.52 66.3376 1420.18 66.3376 L1427.83 66.3376 L1427.83 72.576 L1420.18 72.576 Q1411.55 72.576 1408.27 69.3758 Q1404.99 66.1351 1404.99 57.6282 L1404.99 32.9987 L1399.52 32.9987 L1399.52 27.2059 L1404.99 27.2059 L1404.99 14.324 L1412.48 14.324 Z" fill="#000000" fill-rule="evenodd" fill-opacity="1" /><path clip-path="url(#clip500)" d="M 0 0 M1453.23 32.4315 Q1447.24 32.4315 1443.75 37.1306 Q1440.27 41.7891 1440.27 49.9314 Q1440.27 58.0738 1443.71 62.7728 Q1447.2 67.4314 1453.23 67.4314 Q1459.19 67.4314 1462.67 62.7323 Q1466.15 58.0333 1466.15 49.9314 Q1466.15 41.8701 1462.67 37.1711 Q1459.19 32.4315 1453.23 32.4315 M1453.23 26.1121 Q1462.95 26.1121 1468.5 32.4315 Q1474.05 38.7509 1474.05 49.9314 Q1474.05 61.0714 1468.5 67.4314 Q1462.95 73.7508 1453.23 73.7508 Q1443.47 73.7508 1437.92 67.4314 Q1432.41 61.0714 1432.41 49.9314 Q1432.41 38.7509 1437.92 32.4315 Q1443.47 26.1121 1453.23 26.1121 Z" fill="#000000" fill-rule="evenodd" fill-opacity="1" /><path clip-path="url(#clip500)" d="M 0 0 M1508.16 34.1734 Q1506.91 33.4443 1505.41 33.1202 Q1503.95 32.7556 1502.17 32.7556 Q1495.85 32.7556 1492.44 36.8875 Q1489.08 40.9789 1489.08 48.6757 L1489.08 72.576 L1481.59 72.576 L1481.59 27.2059 L1489.08 27.2059 L1489.08 34.2544 Q1491.43 30.1225 1495.2 28.1376 Q1498.97 26.1121 1504.35 26.1121 Q1505.12 26.1121 1506.06 26.2337 Q1506.99 26.3147 1508.12 26.5172 L1508.16 34.1734 Z" fill="#000000" fill-rule="evenodd" fill-opacity="1" /><path clip-path="url(#clip500)" d="M 0 0 M1506.91 46.5287 L1528.74 46.5287 L1528.74 53.1722 L1506.91 53.1722 L1506.91 46.5287 Z" fill="#000000" fill-rule="evenodd" fill-opacity="1" /><path clip-path="url(#clip500)" d="M 0 0 M1545.07 18.8205 L1545.07 41.5461 L1555.35 41.5461 Q1561.07 41.5461 1564.19 38.5889 Q1567.3 35.6318 1567.3 30.163 Q1567.3 24.7348 1564.19 21.7777 Q1561.07 18.8205 1555.35 18.8205 L1545.07 18.8205 M1536.88 12.096 L1555.35 12.096 Q1565.52 12.096 1570.71 16.714 Q1575.93 21.2916 1575.93 30.163 Q1575.93 39.1155 1570.71 43.6931 Q1565.52 48.2706 1555.35 48.2706 L1545.07 48.2706 L1545.07 72.576 L1536.88 72.576 L1536.88 12.096 Z" fill="#000000" fill-rule="evenodd" fill-opacity="1" /><path clip-path="url(#clip500)" d="M 0 0 M1608.58 34.1734 Q1607.33 33.4443 1605.83 33.1202 Q1604.37 32.7556 1602.59 32.7556 Q1596.27 32.7556 1592.87 36.8875 Q1589.5 40.9789 1589.5 48.6757 L1589.5 72.576 L1582.01 72.576 L1582.01 27.2059 L1589.5 27.2059 L1589.5 34.2544 Q1591.85 30.1225 1595.62 28.1376 Q1599.39 26.1121 1604.78 26.1121 Q1605.55 26.1121 1606.48 26.2337 Q1607.41 26.3147 1608.54 26.5172 L1608.58 34.1734 Z" fill="#000000" fill-rule="evenodd" fill-opacity="1" /><path clip-path="url(#clip500)" d="M 0 0 M1653.39 48.0275 L1653.39 51.6733 L1619.12 51.6733 Q1619.6 59.3701 1623.73 63.421 Q1627.91 67.4314 1635.32 67.4314 Q1639.61 67.4314 1643.62 66.3781 Q1647.67 65.3249 1651.64 63.2184 L1651.64 70.267 Q1647.63 71.9684 1643.42 72.8596 Q1639.21 73.7508 1634.87 73.7508 Q1624.02 73.7508 1617.66 67.4314 Q1611.34 61.1119 1611.34 50.3365 Q1611.34 39.1965 1617.33 32.6746 Q1623.37 26.1121 1633.58 26.1121 Q1642.73 26.1121 1648.04 32.0264 Q1653.39 37.9003 1653.39 48.0275 M1645.93 45.84 Q1645.85 39.7232 1642.49 36.0774 Q1639.17 32.4315 1633.66 32.4315 Q1627.42 32.4315 1623.65 35.9558 Q1619.93 39.4801 1619.36 45.8805 L1645.93 45.84 Z" fill="#000000" fill-rule="evenodd" fill-opacity="1" /><path clip-path="url(#clip500)" d="M 0 0 M1680.08 76.7889 Q1676.92 84.8907 1673.92 87.3618 Q1670.93 89.8329 1665.9 89.8329 L1659.95 89.8329 L1659.95 83.5945 L1664.32 83.5945 Q1667.4 83.5945 1669.1 82.1361 Q1670.81 80.6778 1672.87 75.2496 L1674.21 71.8468 L1655.86 27.2059 L1663.76 27.2059 L1677.94 62.6918 L1692.11 27.2059 L1700.01 27.2059 L1680.08 76.7889 Z" fill="#000000" fill-rule="evenodd" fill-opacity="1" /><path clip-path="url(#clip500)" d="M 0 0 M1734.53 12.096 L1746.72 12.096 L1762.15 53.2532 L1777.67 12.096 L1789.86 12.096 L1789.86 72.576 L1781.88 72.576 L1781.88 19.4686 L1766.29 60.9499 L1758.06 60.9499 L1742.47 19.4686 L1742.47 72.576 L1734.53 72.576 L1734.53 12.096 Z" fill="#000000" fill-rule="evenodd" fill-opacity="1" /><path clip-path="url(#clip500)" d="M 0 0 M1815.26 32.4315 Q1809.27 32.4315 1805.78 37.1306 Q1802.3 41.7891 1802.3 49.9314 Q1802.3 58.0738 1805.74 62.7728 Q1809.22 67.4314 1815.26 67.4314 Q1821.22 67.4314 1824.7 62.7323 Q1828.18 58.0333 1828.18 49.9314 Q1828.18 41.8701 1824.7 37.1711 Q1821.22 32.4315 1815.26 32.4315 M1815.26 26.1121 Q1824.98 26.1121 1830.53 32.4315 Q1836.08 38.7509 1836.08 49.9314 Q1836.08 61.0714 1830.53 67.4314 Q1824.98 73.7508 1815.26 73.7508 Q1805.5 73.7508 1799.95 67.4314 Q1794.44 61.0714 1794.44 49.9314 Q1794.44 38.7509 1799.95 32.4315 Q1805.5 26.1121 1815.26 26.1121 Z" fill="#000000" fill-rule="evenodd" fill-opacity="1" /><path clip-path="url(#clip500)" d="M 0 0 M1873.76 34.0924 L1873.76 9.54393 L1881.21 9.54393 L1881.21 72.576 L1873.76 72.576 L1873.76 65.7705 Q1871.41 69.8214 1867.8 71.8063 Q1864.24 73.7508 1859.21 73.7508 Q1850.99 73.7508 1845.8 67.1883 Q1840.66 60.6258 1840.66 49.9314 Q1840.66 39.2371 1845.8 32.6746 Q1850.99 26.1121 1859.21 26.1121 Q1864.24 26.1121 1867.8 28.0971 Q1871.41 30.0415 1873.76 34.0924 M1848.36 49.9314 Q1848.36 58.1548 1851.72 62.8538 Q1855.12 67.5124 1861.04 67.5124 Q1866.95 67.5124 1870.35 62.8538 Q1873.76 58.1548 1873.76 49.9314 Q1873.76 41.7081 1870.35 37.0496 Q1866.95 32.3505 1861.04 32.3505 Q1855.12 32.3505 1851.72 37.0496 Q1848.36 41.7081 1848.36 49.9314 Z" fill="#000000" fill-rule="evenodd" fill-opacity="1" /><path clip-path="url(#clip500)" d="M 0 0 M1927.84 48.0275 L1927.84 51.6733 L1893.56 51.6733 Q1894.05 59.3701 1898.18 63.421 Q1902.36 67.4314 1909.77 67.4314 Q1914.06 67.4314 1918.07 66.3781 Q1922.12 65.3249 1926.09 63.2184 L1926.09 70.267 Q1922.08 71.9684 1917.87 72.8596 Q1913.66 73.7508 1909.32 73.7508 Q1898.47 73.7508 1892.11 67.4314 Q1885.79 61.1119 1885.79 50.3365 Q1885.79 39.1965 1891.78 32.6746 Q1897.82 26.1121 1908.03 26.1121 Q1917.18 26.1121 1922.49 32.0264 Q1927.84 37.9003 1927.84 48.0275 M1920.38 45.84 Q1920.3 39.7232 1916.94 36.0774 Q1913.62 32.4315 1908.11 32.4315 Q1901.87 32.4315 1898.1 35.9558 Q1894.37 39.4801 1893.81 45.8805 L1920.38 45.84 Z" fill="#000000" fill-rule="evenodd" fill-opacity="1" /><path clip-path="url(#clip500)" d="M 0 0 M1935.65 9.54393 L1943.11 9.54393 L1943.11 72.576 L1935.65 72.576 L1935.65 9.54393 Z" fill="#000000" fill-rule="evenodd" fill-opacity="1" /><polyline clip-path="url(#clip502)" style="stroke:#009af9; stroke-width:8; stroke-opacity:1; fill:none" points="
  226.232,1324.81 228.361,1331.63 230.489,1337.31 232.618,1342.06 234.747,1346.05 236.875,1349.42 239.004,1352.27 241.133,1354.7 243.261,1356.77 245.39,1358.54 
  247.518,1360.06 249.647,1361.37 251.776,1362.49 253.904,1363.46 256.033,1364.28 258.162,1364.99 260.29,1365.59 262.419,1366.1 264.548,1366.53 266.676,1366.88 
  268.805,1367.17 270.934,1367.4 273.062,1367.58 275.191,1367.7 277.32,1367.79 279.448,1367.82 281.577,1367.82 283.706,1367.79 285.834,1367.72 287.963,1367.61 
  290.092,1367.48 292.22,1367.31 294.349,1367.12 296.478,1366.89 298.606,1366.64 300.735,1366.37 302.863,1366.07 304.992,1365.74 307.121,1365.39 309.249,1365.01 
  311.378,1364.61 313.507,1364.19 315.635,1363.74 317.764,1363.26 319.893,1362.76 322.021,1362.24 324.15,1361.69 326.279,1361.11 328.407,1360.51 330.536,1359.89 
  332.665,1359.23 334.793,1358.55 336.922,1357.85 339.051,1357.11 341.179,1356.35 343.308,1355.56 345.437,1354.74 347.565,1353.89 349.694,1353.01 351.822,1352.09 
  353.951,1351.15 356.08,1350.17 358.208,1349.16 360.337,1348.11 362.466,1347.03 364.594,1345.91 366.723,1344.75 368.852,1343.56 370.98,1342.32 373.109,1341.05 
  375.238,1339.73 377.366,1338.37 379.495,1336.97 381.624,1335.52 383.752,1334.03 385.881,1332.48 388.01,1330.89 390.138,1329.25 392.267,1327.56 394.396,1325.81 
  396.524,1324 398.653,1322.15 400.781,1320.23 402.91,1318.25 405.039,1316.21 407.167,1314.11 409.296,1311.94 411.425,1309.7 413.553,1307.4 415.682,1305.02 
  417.811,1302.57 419.939,1300.04 422.068,1297.44 424.197,1294.76 426.325,1291.99 428.454,1289.14 430.583,1286.2 432.711,1283.17 434.84,1280.04 436.969,1276.82 
  439.097,1273.5 441.226,1270.08 443.355,1266.56 445.483,1262.93 447.612,1259.18 449.74,1255.32 451.869,1251.35 453.998,1247.25 456.126,1243.03 458.255,1238.67 
  460.384,1234.19 462.512,1229.57 464.641,1224.8 466.77,1219.9 468.898,1214.84 471.027,1209.63 473.156,1204.26 475.284,1198.72 477.413,1193.02 479.542,1187.14 
  481.67,1181.09 483.799,1174.85 485.928,1168.42 488.056,1161.79 490.185,1154.97 492.314,1147.94 494.442,1140.69 496.571,1133.22 498.7,1125.53 500.828,1117.6 
  502.957,1109.43 505.085,1101.02 507.214,1092.35 509.343,1083.41 511.471,1074.21 513.6,1064.73 515.729,1054.96 517.857,1044.9 519.986,1034.53 522.115,1023.85 
  524.243,1012.85 526.372,1001.51 528.501,989.833 530.629,977.804 532.758,965.413 534.887,952.649 537.015,939.502 539.144,925.961 541.273,912.015 543.401,897.652 
  545.53,882.863 547.659,867.634 549.787,851.953 551.916,835.81 554.044,819.192 556.173,802.085 558.302,784.481 560.43,766.373 562.559,747.744 564.688,728.577 
  566.816,708.858 568.945,688.576 571.074,667.725 573.202,646.299 575.331,624.298 577.46,601.722 579.588,578.577 581.717,554.87 583.846,530.614 585.974,505.821 
  588.103,480.508 590.232,454.741 592.36,428.596 594.489,402.066 596.618,375.216 598.746,348.188 600.875,321.205 603.003,294.563 605.132,268.639 607.261,243.886 
  609.389,220.837 611.518,200.099 613.647,182.34 615.775,168.694 617.904,160.899 620.033,160.703 622.161,169.833 624.29,190.001 626.419,222.901 628.547,270.235 
  630.676,332.787 632.805,408.944 634.933,496.083 637.062,590.742 639.191,688.622 641.319,784.666 643.448,874.717 645.577,956.038 647.705,1026.98 649.834,1087.07 
  651.962,1137.01 654.091,1178.43 656.22,1212.37 658.348,1239.99 660.477,1262.38 662.606,1280.51 664.734,1295.26 666.863,1307.31 668.992,1317.19 671.12,1325.33 
  673.249,1332.07 675.378,1337.69 677.506,1342.38 679.635,1346.32 681.764,1349.64 683.892,1352.46 686.021,1354.87 688.15,1356.92 690.278,1358.68 692.407,1360.18 
  694.536,1361.47 696.664,1362.58 698.793,1363.53 700.921,1364.35 703.05,1365.05 705.179,1365.64 707.307,1366.15 709.436,1366.57 711.565,1366.92 713.693,1367.2 
  715.822,1367.43 717.951,1367.6 720.079,1367.73 722.208,1367.8 724.337,1367.84 726.465,1367.84 728.594,1367.8 730.723,1367.72 732.851,1367.62 734.98,1367.48 
  737.109,1367.31 739.237,1367.11 741.366,1366.89 743.495,1366.64 745.623,1366.36 747.752,1366.06 749.881,1365.73 752.009,1365.38 754.138,1365 756.266,1364.6 
  758.395,1364.17 760.524,1363.72 762.652,1363.24 764.781,1362.74 766.91,1362.22 769.038,1361.67 771.167,1361.09 773.296,1360.49 775.424,1359.86 777.553,1359.21 
  779.682,1358.53 781.81,1357.82 783.939,1357.08 786.068,1356.32 788.196,1355.53 790.325,1354.7 792.454,1353.85 794.582,1352.97 796.711,1352.05 798.84,1351.11 
  800.968,1350.13 803.097,1349.11 805.225,1348.06 807.354,1346.98 809.483,1345.86 811.611,1344.7 813.74,1343.5 815.869,1342.27 817.997,1340.99 820.126,1339.67 
  822.255,1338.31 824.383,1336.91 826.512,1335.46 828.641,1333.96 830.769,1332.41 832.898,1330.82 835.027,1329.18 837.155,1327.48 839.284,1325.73 841.413,1323.92 
  843.541,1322.06 845.67,1320.14 847.799,1318.16 849.927,1316.12 852.056,1314.01 854.184,1311.84 856.313,1309.6 858.442,1307.29 860.57,1304.91 862.699,1302.46 
  864.828,1299.93 866.956,1297.32 869.085,1294.63 871.214,1291.86 873.342,1289.01 875.471,1286.06 877.6,1283.03 879.728,1279.9 881.857,1276.67 883.986,1273.35 
  886.114,1269.93 888.243,1266.4 890.372,1262.76 892.5,1259.01 894.629,1255.15 896.758,1251.16 898.886,1247.06 901.015,1242.83 903.143,1238.47 905.272,1233.98 
  907.401,1229.36 909.529,1224.59 911.658,1219.67 913.787,1214.61 915.915,1209.39 918.044,1204.01 920.173,1198.47 922.301,1192.76 924.43,1186.87 926.559,1180.81 
  928.687,1174.56 930.816,1168.12 932.945,1161.49 935.073,1154.65 937.202,1147.61 939.331,1140.35 941.459,1132.88 943.588,1125.17 945.717,1117.24 947.845,1109.06 
  949.974,1100.63 952.103,1091.95 954.231,1083 956.36,1073.79 958.488,1064.29 960.617,1054.51 962.746,1044.43 964.874,1034.05 967.003,1023.36 969.132,1012.34 
  971.26,1000.99 973.389,989.299 975.518,977.254 977.646,964.847 979.775,952.065 981.904,938.9 984.032,925.34 986.161,911.374 988.29,896.992 990.418,882.181 
  992.547,866.93 994.676,851.228 996.804,835.062 998.933,818.422 1001.06,801.294 1003.19,783.666 1005.32,765.526 1007.45,746.863 1009.58,727.675 1011.7,707.947 
  1013.83,687.658 1015.96,666.796 1018.09,645.352 1020.22,623.323 1022.35,600.71 1024.48,577.52 1026.61,553.765 1028.73,529.462 1030.86,504.633 1032.99,479.304 
  1035.12,453.507 1037.25,427.283 1039.38,400.787 1041.51,374.059 1043.63,347.141 1045.76,320.191 1047.89,293.483 1050.02,267.407 1052.15,242.469 1054.28,219.291 
  1056.41,198.612 1058.54,181.285 1060.66,168.282 1062.79,160.744 1064.92,160.58 1067.05,169.916 1069.18,190.602 1071.31,224.206 1073.44,272.013 1075.56,334.983 
  1077.69,411.82 1079.82,499.496 1081.95,594.382 1084.08,692.256 1086.21,788.3 1088.34,877.975 1090.46,958.876 1092.59,1029.57 1094.72,1089.53 1096.85,1139.17 
  1098.98,1179.81 1101.11,1213.38 1103.24,1240.78 1105.37,1263.03 1107.49,1281.08 1109.62,1295.73 1111.75,1307.69 1113.88,1317.51 1116.01,1325.59 1118.14,1332.29 
  1120.27,1337.86 1122.39,1342.53 1124.52,1346.45 1126.65,1349.76 1128.78,1352.56 1130.91,1354.94 1133.04,1356.98 1135.17,1358.72 1137.3,1360.23 1139.42,1361.51 
  1141.55,1362.62 1143.68,1363.56 1145.81,1364.38 1147.94,1365.07 1150.07,1365.66 1152.2,1366.16 1154.32,1366.58 1156.45,1366.93 1158.58,1367.21 1160.71,1367.44 
  1162.84,1367.61 1164.97,1367.73 1167.1,1367.8 1169.23,1367.84 1171.35,1367.83 1173.48,1367.79 1175.61,1367.72 1177.74,1367.61 1179.87,1367.47 1182,1367.3 
  1184.13,1367.11 1186.25,1366.88 1188.38,1366.63 1190.51,1366.35 1192.64,1366.05 1194.77,1365.72 1196.9,1365.37 1199.03,1364.99 1201.15,1364.58 1203.28,1364.16 
  1205.41,1363.7 1207.54,1363.23 1209.67,1362.73 1211.8,1362.2 1213.93,1361.65 1216.06,1361.07 1218.18,1360.47 1220.31,1359.84 1222.44,1359.18 1224.57,1358.5 
  1226.7,1357.79 1228.83,1357.06 1230.96,1356.29 1233.08,1355.5 1235.21,1354.67 1237.34,1353.82 1239.47,1352.94 1241.6,1352.02 1243.73,1351.07 1245.86,1350.09 
  1247.99,1349.08 1250.11,1348.03 1252.24,1346.94 1254.37,1345.82 1256.5,1344.66 1258.63,1343.46 1260.76,1342.22 1262.89,1340.94 1265.01,1339.63 1267.14,1338.26 
  1269.27,1336.86 1271.4,1335.4 1273.53,1333.91 1275.66,1332.36 1277.79,1330.76 1279.92,1329.12 1282.04,1327.42 1284.17,1325.67 1286.3,1323.86 1288.43,1321.99 
  1290.56,1320.07 1292.69,1318.09 1294.82,1316.04 1296.94,1313.94 1299.07,1311.76 1301.2,1309.52 1303.33,1307.21 1305.46,1304.83 1307.59,1302.37 1309.72,1299.84 
  1311.84,1297.23 1313.97,1294.54 1316.1,1291.76 1318.23,1288.9 1320.36,1285.96 1322.49,1282.92 1324.62,1279.79 1326.75,1276.56 1328.87,1273.23 1331,1269.8 
  1333.13,1266.27 1335.26,1262.63 1337.39,1258.88 1339.52,1255.01 1341.65,1251.02 1343.77,1246.91 1345.9,1242.68 1348.03,1238.32 1350.16,1233.82 1352.29,1229.19 
  1354.42,1224.41 1356.55,1219.49 1358.68,1214.42 1360.8,1209.2 1362.93,1203.81 1365.06,1198.27 1367.19,1192.55 1369.32,1186.66 1371.45,1180.59 1373.58,1174.34 
  1375.7,1167.89 1377.83,1161.25 1379.96,1154.41 1382.09,1147.36 1384.22,1140.09 1386.35,1132.61 1388.48,1124.89 1390.6,1116.95 1392.73,1108.76 1394.86,1100.33 
  1396.99,1091.63 1399.12,1082.68 1401.25,1073.45 1403.38,1063.95 1405.51,1054.15 1407.63,1044.07 1409.76,1033.67 1411.89,1022.96 1414.02,1011.93 1416.15,1000.57 
  1418.28,988.867 1420.41,976.81 1422.53,964.391 1424.66,951.598 1426.79,938.42 1428.92,924.847 1431.05,910.867 1433.18,896.47 1435.31,881.643 1437.44,866.376 
  1439.56,850.656 1441.69,834.473 1443.82,817.813 1445.95,800.667 1448.08,783.02 1450.21,764.861 1452.34,746.178 1454.46,726.961 1456.59,707.208 1458.72,686.901 
  1460.85,666.024 1462.98,644.567 1465.11,622.523 1467.24,599.893 1469.37,576.684 1471.49,552.906 1473.62,528.579 1475.75,503.724 1477.88,478.37 1480.01,452.552 
  1482.14,426.31 1484.27,399.777 1486.39,373.019 1488.52,346.095 1490.65,319.173 1492.78,292.53 1494.91,266.554 1497.04,241.742 1499.17,218.702 1501.29,198.149 
  1503.42,180.91 1505.55,167.91 1507.68,160.489 1509.81,160.711 1511.94,170.527 1514.07,191.691 1516.2,225.761 1518.32,274.096 1520.45,337.721 1522.58,415.045 
  1524.71,503.015 1526.84,598.009 1528.97,695.835 1531.1,791.725 1533.22,881.075 1535.35,961.541 1537.48,1031.81 1539.61,1091.41 1541.74,1140.77 1543.87,1181.16 
  1546,1214.46 1548.13,1241.66 1550.25,1263.74 1552.38,1281.65 1554.51,1296.2 1556.64,1308.07 1558.77,1317.82 1560.9,1325.85 1563.03,1332.5 1565.15,1338.04 
  1567.28,1342.67 1569.41,1346.57 1571.54,1349.86 1573.67,1352.65 1575.8,1355.02 1577.93,1357.04 1580.06,1358.78 1582.18,1360.27 1584.31,1361.55 1586.44,1362.65 
  1588.57,1363.59 1590.7,1364.4 1592.83,1365.09 1594.96,1365.68 1597.08,1366.18 1599.21,1366.59 1601.34,1366.94 1603.47,1367.22 1605.6,1367.44 1607.73,1367.61 
  1609.86,1367.73 1611.98,1367.8 1614.11,1367.84 1616.24,1367.83 1618.37,1367.79 1620.5,1367.71 1622.63,1367.6 1624.76,1367.46 1626.89,1367.29 1629.01,1367.1 
  1631.14,1366.87 1633.27,1366.62 1635.4,1366.34 1637.53,1366.03 1639.66,1365.7 1641.79,1365.35 1643.91,1364.97 1646.04,1364.57 1648.17,1364.14 1650.3,1363.68 
  1652.43,1363.2 1654.56,1362.7 1656.69,1362.17 1658.82,1361.62 1660.94,1361.04 1663.07,1360.44 1665.2,1359.81 1667.33,1359.15 1669.46,1358.47 1671.59,1357.76 
  1673.72,1357.02 1675.84,1356.26 1677.97,1355.46 1680.1,1354.64 1682.23,1353.78 1684.36,1352.9 1686.49,1351.98 1688.62,1351.03 1690.74,1350.05 1692.87,1349.03 
  1695,1347.98 1697.13,1346.89 1699.26,1345.77 1701.39,1344.61 1703.52,1343.41 1705.65,1342.17 1707.77,1340.89 1709.9,1339.57 1712.03,1338.2 1714.16,1336.79 
  1716.29,1335.34 1718.42,1333.84 1720.55,1332.29 1722.67,1330.69 1724.8,1329.04 1726.93,1327.34 1729.06,1325.59 1731.19,1323.78 1733.32,1321.91 1735.45,1319.99 
  1737.58,1318 1739.7,1315.96 1741.83,1313.84 1743.96,1311.67 1746.09,1309.42 1748.22,1307.11 1750.35,1304.72 1752.48,1302.26 1754.6,1299.73 1756.73,1297.11 
  1758.86,1294.42 1760.99,1291.64 1763.12,1288.78 1765.25,1285.83 1767.38,1282.79 1769.51,1279.65 1771.63,1276.42 1773.76,1273.09 1775.89,1269.66 1778.02,1266.12 
  1780.15,1262.47 1782.28,1258.71 1784.41,1254.84 1786.53,1250.85 1788.66,1246.74 1790.79,1242.5 1792.92,1238.13 1795.05,1233.63 1797.18,1228.99 1799.31,1224.21 
  1801.43,1219.28 1803.56,1214.2 1805.69,1208.97 1807.82,1203.58 1809.95,1198.03 1812.08,1192.3 1814.21,1186.4 1816.34,1180.33 1818.46,1174.06 1820.59,1167.61 
  1822.72,1160.96 1824.85,1154.11 1826.98,1147.05 1829.11,1139.78 1831.24,1132.28 1833.36,1124.56 1835.49,1116.6 1837.62,1108.41 1839.75,1099.96 1841.88,1091.26 
  1844.01,1082.29 1846.14,1073.05 1848.27,1063.54 1850.39,1053.73 1852.52,1043.63 1854.65,1033.22 1856.78,1022.5 1858.91,1011.46 1861.04,1000.08 1863.17,988.365 
  1865.29,976.295 1867.42,963.861 1869.55,951.053 1871.68,937.859 1873.81,924.269 1875.94,910.271 1878.07,895.854 1880.2,881.008 1882.32,865.72 1884.45,849.979 
  1886.58,833.774 1888.71,817.092 1890.84,799.924 1892.97,782.255 1895.1,764.076 1897.22,745.373 1899.35,726.135 1901.48,706.349 1903.61,686.011 1905.74,665.117 
  1907.87,643.649 1910,621.596 1912.12,598.954 1914.25,575.727 1916.38,551.926 1918.51,527.569 1920.64,502.682 1922.77,477.299 1924.9,451.461 1927.03,425.215 
  1929.15,398.645 1931.28,371.931 1933.41,345.083 1935.54,318.202 1937.67,291.529 1939.8,265.447 1941.93,240.476 1944.05,217.275 1946.18,196.644 1948.31,179.522 
  1950.44,166.987 1952.57,160.256 1954.7,160.76 1956.83,170.669 1958.96,192.15 1961.08,226.83 1963.21,275.79 1965.34,339.593 1967.47,417.397 1969.6,505.932 
  1971.73,601.315 1973.86,699.248 1975.98,795.02 1978.11,884.169 1980.24,964.45 1982.37,1034.59 1984.5,1094.08 1986.63,1143.17 1988.76,1182.9 1990.88,1215.05 
  1993.01,1241.87 1995.14,1263.86 1997.27,1281.72 1999.4,1296.25 2001.53,1308.11 2003.66,1317.83 2005.79,1325.84 2007.91,1332.48 2010.04,1338 2012.17,1342.63 
  2014.3,1346.52 2016.43,1349.81 2018.56,1352.6 2020.69,1354.97 2022.81,1356.99 2024.94,1358.72 2027.07,1360.2 2029.2,1361.48 2031.33,1362.58 2033.46,1363.52 
  2035.59,1364.33 2037.72,1365.02 2039.84,1365.61 2041.97,1366.11 2044.1,1366.52 2046.23,1366.87 2048.36,1367.15 2050.49,1367.37 2052.62,1367.54 2054.74,1367.66 
  2056.87,1367.73 2059,1367.76 2061.13,1367.75 2063.26,1367.71 2065.39,1367.63 2067.52,1367.52 2069.65,1367.38 2071.77,1367.21 2073.9,1367.01 2076.03,1366.79 
  2078.16,1366.53 2080.29,1366.25 2082.42,1365.94 2084.55,1365.61 2086.67,1365.26 2088.8,1364.87 2090.93,1364.47 2093.06,1364.04 2095.19,1363.58 2097.32,1363.1 
  2099.45,1362.6 2101.57,1362.06 2103.7,1361.51 2105.83,1360.93 2107.96,1360.32 2110.09,1359.69 2112.22,1359.03 2114.35,1358.34 2116.48,1357.63 2118.6,1356.89 
  2120.73,1356.12 2122.86,1355.32 2124.99,1354.49 2127.12,1353.63 2129.25,1352.74 2131.38,1351.82 2133.5,1350.87 2135.63,1349.88 2137.76,1348.86 2139.89,1347.8 
  2142.02,1346.71 2144.15,1345.58 2146.28,1344.42 2148.41,1343.21 2150.53,1341.97 2152.66,1340.68 2154.79,1339.35 2156.92,1337.98 2159.05,1336.57 2161.18,1335.11 
  2163.31,1333.6 2165.43,1332.04 2167.56,1330.44 2169.69,1328.78 2171.82,1327.08 2173.95,1325.31 2176.08,1323.5 2178.21,1321.62 2180.34,1319.69 2182.46,1317.69 
  2184.59,1315.64 2186.72,1313.52 2188.85,1311.33 2190.98,1309.07 2193.11,1306.75 2195.24,1304.35 2197.36,1301.88 2199.49,1299.34 2201.62,1296.71 2203.75,1294 
  2205.88,1291.21 2208.01,1288.34 2210.14,1285.37 2212.26,1282.32 2214.39,1279.17 2216.52,1275.92 2218.65,1272.58 2220.78,1269.13 2222.91,1265.57 2225.04,1261.91 
  2227.17,1258.14 2229.29,1254.25 2231.42,1250.24 2233.55,1246.11 2235.68,1241.85 2237.81,1237.46 2239.94,1232.94 2242.07,1228.28 2244.19,1223.48 2246.32,1218.53 
  2248.45,1213.43 2250.58,1208.18 2252.71,1202.76 2254.84,1197.18 2256.97,1191.44 2259.1,1185.51 2261.22,1179.41 2263.35,1173.12 2265.48,1166.63 2267.61,1159.96 
  2269.74,1153.07 2271.87,1145.98 2274,1138.68 2276.12,1131.15 2278.25,1123.39 2280.38,1115.4 2282.51,1107.17 2284.64,1098.69 2286.77,1089.94 2288.9,1080.94 
  2291.02,1071.66 2293.15,1062.1 2295.28,1052.26 2297.41,1042.11 2299.54,1031.66 2301.67,1020.89 2303.8,1009.8 2305.93,998.372 2308.05,986.601 2310.18,974.475 
  2312.31,961.984 2314.44,949.118 2316.57,935.867 2318.7,922.218 2320.83,908.162 2322.95,893.687 2325.08,878.78 2327.21,863.432 2329.34,847.628 2331.47,831.359 
  2333.6,814.611 2335.73,797.372 2337.86,779.63 2339.98,761.372 2342.11,742.588 2344.24,723.268 2346.37,703.401 2348.5,682.978 2350.63,661.992 2352.76,640.434 
  
  "/>
<polyline clip-path="url(#clip502)" style="stroke:#e26f46; stroke-width:8; stroke-opacity:1; fill:none" points="
  226.232,764.004 228.361,797.883 230.489,830.755 232.618,862.451 234.747,892.861 236.875,921.919 239.004,949.596 241.133,975.888 243.261,1000.81 245.39,1024.39 
  247.518,1046.66 249.647,1067.68 251.776,1087.48 253.904,1106.13 256.033,1123.67 258.162,1140.17 260.29,1155.66 262.419,1170.22 264.548,1183.88 266.676,1196.7 
  268.805,1208.72 270.934,1220 273.062,1230.57 275.191,1240.48 277.32,1249.76 279.448,1258.46 281.577,1266.61 283.706,1274.24 285.834,1281.39 287.963,1288.08 
  290.092,1294.34 292.22,1300.21 294.349,1305.7 296.478,1310.84 298.606,1315.65 300.735,1320.16 302.863,1324.38 304.992,1328.32 307.121,1332.02 309.249,1335.47 
  311.378,1338.71 313.507,1341.74 315.635,1344.57 317.764,1347.22 319.893,1349.71 322.021,1352.03 324.15,1354.21 326.279,1356.24 328.407,1358.15 330.536,1359.94 
  332.665,1361.61 334.793,1363.17 336.922,1364.63 339.051,1366.01 341.179,1367.29 343.308,1368.49 345.437,1369.62 347.565,1370.67 349.694,1371.66 351.822,1372.59 
  353.951,1373.45 356.08,1374.27 358.208,1375.03 360.337,1375.74 362.466,1376.41 364.594,1377.04 366.723,1377.62 368.852,1378.17 370.98,1378.69 373.109,1379.17 
  375.238,1379.63 377.366,1380.05 379.495,1380.45 381.624,1380.83 383.752,1381.18 385.881,1381.51 388.01,1381.82 390.138,1382.11 392.267,1382.38 394.396,1382.64 
  396.524,1382.88 398.653,1383.1 400.781,1383.31 402.91,1383.51 405.039,1383.7 407.167,1383.88 409.296,1384.04 411.425,1384.2 413.553,1384.34 415.682,1384.48 
  417.811,1384.61 419.939,1384.73 422.068,1384.84 424.197,1384.95 426.325,1385.05 428.454,1385.15 430.583,1385.23 432.711,1385.32 434.84,1385.4 436.969,1385.47 
  439.097,1385.54 441.226,1385.61 443.355,1385.67 445.483,1385.73 447.612,1385.78 449.74,1385.83 451.869,1385.88 453.998,1385.92 456.126,1385.97 458.255,1386 
  460.384,1386.04 462.512,1386.08 464.641,1386.11 466.77,1386.14 468.898,1386.17 471.027,1386.19 473.156,1386.22 475.284,1386.24 477.413,1386.26 479.542,1386.28 
  481.67,1386.3 483.799,1386.31 485.928,1386.33 488.056,1386.34 490.185,1386.35 492.314,1386.36 494.442,1386.37 496.571,1386.38 498.7,1386.39 500.828,1386.39 
  502.957,1386.39 505.085,1386.39 507.214,1386.39 509.343,1386.39 511.471,1386.39 513.6,1386.39 515.729,1386.38 517.857,1386.37 519.986,1386.36 522.115,1386.34 
  524.243,1386.33 526.372,1386.31 528.501,1386.29 530.629,1386.27 532.758,1386.24 534.887,1386.22 537.015,1386.18 539.144,1386.15 541.273,1386.11 543.401,1386.06 
  545.53,1386.01 547.659,1385.94 549.787,1385.87 551.916,1385.8 554.044,1385.71 556.173,1385.6 558.302,1385.49 560.43,1385.35 562.559,1385.19 564.688,1385.01 
  566.816,1384.81 568.945,1384.58 571.074,1384.32 573.202,1384.03 575.331,1383.67 577.46,1383.26 579.588,1382.76 581.717,1382.16 583.846,1381.45 585.974,1380.58 
  588.103,1379.55 590.232,1378.29 592.36,1376.72 594.489,1374.85 596.618,1372.62 598.746,1369.91 600.875,1366.55 603.003,1362.34 605.132,1356.98 607.261,1350.15 
  609.389,1341.46 611.518,1330.48 613.647,1316.74 615.775,1299.43 617.904,1277.33 620.033,1249.3 622.161,1214.33 624.29,1171.5 626.419,1120.03 628.547,1059.18 
  630.676,989.219 632.805,912.94 634.933,833.731 637.062,755.374 639.191,682.037 641.319,618.215 643.448,567.23 645.577,530.566 647.705,508.581 649.834,500.5 
  651.962,504.416 654.091,517.562 656.22,538.069 658.348,564.214 660.477,594.409 662.606,627.268 664.734,661.611 666.863,696.597 668.992,731.631 671.12,766.235 
  673.249,800.056 675.378,832.857 677.506,864.469 679.635,894.796 681.764,923.775 683.892,951.369 686.021,977.57 688.15,1002.4 690.278,1025.89 692.407,1048.08 
  694.536,1069.02 696.664,1088.75 698.793,1107.32 700.921,1124.8 703.05,1141.22 705.179,1156.66 707.307,1171.15 709.436,1184.76 711.565,1197.53 713.693,1209.5 
  715.822,1220.73 717.951,1231.25 720.079,1241.12 722.208,1250.36 724.337,1259.02 726.465,1267.14 728.594,1274.74 730.723,1281.85 732.851,1288.51 734.98,1294.75 
  737.109,1300.59 739.237,1306.06 741.366,1311.18 743.495,1315.97 745.623,1320.45 747.752,1324.65 749.881,1328.58 752.009,1332.26 754.138,1335.7 756.266,1338.92 
  758.395,1341.93 760.524,1344.76 762.652,1347.4 764.781,1349.87 766.91,1352.18 769.038,1354.35 771.167,1356.38 773.296,1358.28 775.424,1360.05 777.553,1361.71 
  779.682,1363.27 781.81,1364.73 783.939,1366.1 786.068,1367.38 788.196,1368.57 790.325,1369.69 792.454,1370.74 794.582,1371.73 796.711,1372.65 798.84,1373.51 
  800.968,1374.32 803.097,1375.08 805.225,1375.79 807.354,1376.45 809.483,1377.08 811.611,1377.66 813.74,1378.21 815.869,1378.73 817.997,1379.21 820.126,1379.66 
  822.255,1380.08 824.383,1380.48 826.512,1380.85 828.641,1381.2 830.769,1381.53 832.898,1381.84 835.027,1382.13 837.155,1382.4 839.284,1382.65 841.413,1382.89 
  843.541,1383.12 845.67,1383.33 847.799,1383.53 849.927,1383.71 852.056,1383.89 854.184,1384.05 856.313,1384.21 858.442,1384.35 860.57,1384.49 862.699,1384.62 
  864.828,1384.74 866.956,1384.85 869.085,1384.96 871.214,1385.06 873.342,1385.15 875.471,1385.24 877.6,1385.32 879.728,1385.4 881.857,1385.48 883.986,1385.55 
  886.114,1385.61 888.243,1385.67 890.372,1385.73 892.5,1385.78 894.629,1385.83 896.758,1385.88 898.886,1385.93 901.015,1385.97 903.143,1386.01 905.272,1386.04 
  907.401,1386.08 909.529,1386.11 911.658,1386.14 913.787,1386.17 915.915,1386.2 918.044,1386.22 920.173,1386.24 922.301,1386.26 924.43,1386.28 926.559,1386.3 
  928.687,1386.32 930.816,1386.33 932.945,1386.34 935.073,1386.35 937.202,1386.36 939.331,1386.37 941.459,1386.38 943.588,1386.39 945.717,1386.39 947.845,1386.39 
  949.974,1386.4 952.103,1386.4 954.231,1386.39 956.36,1386.39 958.488,1386.39 960.617,1386.38 962.746,1386.37 964.874,1386.36 967.003,1386.34 969.132,1386.33 
  971.26,1386.31 973.389,1386.29 975.518,1386.26 977.646,1386.24 979.775,1386.21 981.904,1386.18 984.032,1386.14 986.161,1386.1 988.29,1386.06 990.418,1386 
  992.547,1385.94 994.676,1385.87 996.804,1385.8 998.933,1385.71 1001.06,1385.6 1003.19,1385.49 1005.32,1385.35 1007.45,1385.2 1009.58,1385.02 1011.7,1384.8 
  1013.83,1384.56 1015.96,1384.29 1018.09,1383.98 1020.22,1383.63 1022.35,1383.22 1024.48,1382.73 1026.61,1382.14 1028.73,1381.43 1030.86,1380.57 1032.99,1379.52 
  1035.12,1378.26 1037.25,1376.73 1039.38,1374.82 1041.51,1372.48 1043.63,1369.66 1045.76,1366.25 1047.89,1362.03 1050.02,1356.73 1052.15,1349.98 1054.28,1341.34 
  1056.41,1330.29 1058.54,1316.21 1060.66,1298.44 1062.79,1276.18 1064.92,1248.16 1067.05,1213.01 1069.18,1169.75 1071.31,1117.73 1073.44,1056.67 1075.56,986.642 
  1077.69,909.998 1079.82,830.529 1081.95,752.196 1084.08,679.121 1086.21,615.588 1088.34,565.249 1090.46,529.258 1092.59,507.697 1094.72,499.83 1096.85,504.097 
  1098.98,518.122 1101.11,539.033 1103.24,565.311 1105.37,595.533 1107.49,628.396 1109.62,662.796 1111.75,697.825 1113.88,732.846 1116.01,767.426 1118.14,801.223 
  1120.27,833.987 1122.39,865.559 1124.52,895.831 1126.65,924.752 1128.78,952.298 1130.91,978.462 1133.04,1003.25 1135.17,1026.7 1137.3,1048.84 1139.42,1069.73 
  1141.55,1089.42 1143.68,1107.95 1145.81,1125.39 1147.94,1141.78 1150.07,1157.18 1152.2,1171.64 1154.32,1185.22 1156.45,1197.96 1158.58,1209.91 1160.71,1221.11 
  1162.84,1231.61 1164.97,1241.45 1167.1,1250.67 1169.23,1259.31 1171.35,1267.41 1173.48,1274.99 1175.61,1282.09 1177.74,1288.74 1179.87,1294.96 1182,1300.79 
  1184.13,1306.24 1186.25,1311.35 1188.38,1316.13 1190.51,1320.6 1192.64,1324.79 1194.77,1328.71 1196.9,1332.38 1199.03,1335.82 1201.15,1339.03 1203.28,1342.04 
  1205.41,1344.85 1207.54,1347.49 1209.67,1349.95 1211.8,1352.26 1213.93,1354.42 1216.06,1356.45 1218.18,1358.34 1220.31,1360.11 1222.44,1361.77 1224.57,1363.33 
  1226.7,1364.78 1228.83,1366.14 1230.96,1367.42 1233.08,1368.61 1235.21,1369.73 1237.34,1370.78 1239.47,1371.76 1241.6,1372.68 1243.73,1373.54 1245.86,1374.35 
  1247.99,1375.1 1250.11,1375.81 1252.24,1376.48 1254.37,1377.1 1256.5,1377.68 1258.63,1378.23 1260.76,1378.74 1262.89,1379.22 1265.01,1379.67 1267.14,1380.1 
  1269.27,1380.49 1271.4,1380.87 1273.53,1381.21 1275.66,1381.54 1277.79,1381.85 1279.92,1382.14 1282.04,1382.41 1284.17,1382.66 1286.3,1382.9 1288.43,1383.13 
  1290.56,1383.34 1292.69,1383.53 1294.82,1383.72 1296.94,1383.89 1299.07,1384.06 1301.2,1384.21 1303.33,1384.36 1305.46,1384.49 1307.59,1384.62 1309.72,1384.74 
  1311.84,1384.86 1313.97,1384.96 1316.1,1385.06 1318.23,1385.16 1320.36,1385.24 1322.49,1385.33 1324.62,1385.41 1326.75,1385.48 1328.87,1385.55 1331,1385.61 
  1333.13,1385.67 1335.26,1385.73 1337.39,1385.79 1339.52,1385.84 1341.65,1385.88 1343.77,1385.93 1345.9,1385.97 1348.03,1386.01 1350.16,1386.05 1352.29,1386.08 
  1354.42,1386.11 1356.55,1386.14 1358.68,1386.17 1360.8,1386.2 1362.93,1386.22 1365.06,1386.24 1367.19,1386.26 1369.32,1386.28 1371.45,1386.3 1373.58,1386.32 
  1375.7,1386.33 1377.83,1386.34 1379.96,1386.36 1382.09,1386.37 1384.22,1386.37 1386.35,1386.38 1388.48,1386.39 1390.6,1386.39 1392.73,1386.39 1394.86,1386.4 
  1396.99,1386.4 1399.12,1386.39 1401.25,1386.39 1403.38,1386.39 1405.51,1386.38 1407.63,1386.37 1409.76,1386.36 1411.89,1386.35 1414.02,1386.33 1416.15,1386.31 
  1418.28,1386.29 1420.41,1386.27 1422.53,1386.24 1424.66,1386.21 1426.79,1386.18 1428.92,1386.14 1431.05,1386.1 1433.18,1386.05 1435.31,1386 1437.44,1385.94 
  1439.56,1385.87 1441.69,1385.79 1443.82,1385.7 1445.95,1385.6 1448.08,1385.48 1450.21,1385.35 1452.34,1385.2 1454.46,1385.02 1456.59,1384.81 1458.72,1384.57 
  1460.85,1384.29 1462.98,1383.98 1465.11,1383.62 1467.24,1383.2 1469.37,1382.7 1471.49,1382.11 1473.62,1381.4 1475.75,1380.54 1477.88,1379.49 1480.01,1378.22 
  1482.14,1376.69 1484.27,1374.78 1486.39,1372.43 1488.52,1369.6 1490.65,1366.15 1492.78,1361.87 1494.91,1356.48 1497.04,1349.63 1499.17,1340.87 1501.29,1329.71 
  1503.42,1315.55 1505.55,1297.74 1507.68,1275.36 1509.81,1247.02 1511.94,1211.52 1514.07,1167.94 1516.2,1115.64 1518.32,1054.26 1520.45,983.812 1522.58,906.957 
  1524.71,827.502 1526.84,749.385 1528.97,676.676 1531.1,613.576 1533.22,563.782 1535.35,528.406 1537.48,507.398 1539.61,499.956 1541.74,504.523 1543.87,518.793 
  1546,539.951 1548.13,566.402 1550.25,596.736 1552.38,629.663 1554.51,664.091 1556.64,699.127 1558.77,734.136 1560.9,768.691 1563.03,802.451 1565.15,835.172 
  1567.28,866.697 1569.41,896.918 1571.54,925.788 1573.67,953.283 1575.8,979.396 1577.93,1004.14 1580.06,1027.53 1582.18,1049.62 1584.31,1070.47 1586.44,1090.11 
  1588.57,1108.61 1590.7,1126.01 1592.83,1142.36 1594.96,1157.72 1597.08,1172.15 1599.21,1185.7 1601.34,1198.41 1603.47,1210.33 1605.6,1221.5 1607.73,1231.98 
  1609.86,1241.8 1611.98,1251 1614.11,1259.62 1616.24,1267.69 1618.37,1275.26 1620.5,1282.34 1622.63,1288.97 1624.76,1295.18 1626.89,1300.99 1629.01,1306.43 
  1631.14,1311.53 1633.27,1316.3 1635.4,1320.76 1637.53,1324.94 1639.66,1328.85 1641.79,1332.51 1643.91,1335.94 1646.04,1339.14 1648.17,1342.14 1650.3,1344.95 
  1652.43,1347.58 1654.56,1350.04 1656.69,1352.34 1658.82,1354.5 1660.94,1356.52 1663.07,1358.41 1665.2,1360.17 1667.33,1361.83 1669.46,1363.38 1671.59,1364.83 
  1673.72,1366.19 1675.84,1367.46 1677.97,1368.65 1680.1,1369.77 1682.23,1370.82 1684.36,1371.79 1686.49,1372.71 1688.62,1373.57 1690.74,1374.38 1692.87,1375.13 
  1695,1375.84 1697.13,1376.5 1699.26,1377.12 1701.39,1377.7 1703.52,1378.25 1705.65,1378.76 1707.77,1379.24 1709.9,1379.69 1712.03,1380.11 1714.16,1380.51 
  1716.29,1380.88 1718.42,1381.23 1720.55,1381.55 1722.67,1381.86 1724.8,1382.15 1726.93,1382.42 1729.06,1382.67 1731.19,1382.91 1733.32,1383.13 1735.45,1383.34 
  1737.58,1383.54 1739.7,1383.73 1741.83,1383.9 1743.96,1384.06 1746.09,1384.22 1748.22,1384.36 1750.35,1384.5 1752.48,1384.63 1754.6,1384.75 1756.73,1384.86 
  1758.86,1384.97 1760.99,1385.06 1763.12,1385.16 1765.25,1385.25 1767.38,1385.33 1769.51,1385.41 1771.63,1385.48 1773.76,1385.55 1775.89,1385.61 1778.02,1385.68 
  1780.15,1385.73 1782.28,1385.79 1784.41,1385.84 1786.53,1385.89 1788.66,1385.93 1790.79,1385.97 1792.92,1386.01 1795.05,1386.05 1797.18,1386.08 1799.31,1386.11 
  1801.43,1386.14 1803.56,1386.17 1805.69,1386.2 1807.82,1386.22 1809.95,1386.24 1812.08,1386.26 1814.21,1386.28 1816.34,1386.3 1818.46,1386.32 1820.59,1386.33 
  1822.72,1386.34 1824.85,1386.36 1826.98,1386.37 1829.11,1386.37 1831.24,1386.38 1833.36,1386.39 1835.49,1386.39 1837.62,1386.39 1839.75,1386.4 1841.88,1386.4 
  1844.01,1386.39 1846.14,1386.39 1848.27,1386.39 1850.39,1386.38 1852.52,1386.37 1854.65,1386.36 1856.78,1386.35 1858.91,1386.33 1861.04,1386.31 1863.17,1386.29 
  1865.29,1386.26 1867.42,1386.23 1869.55,1386.2 1871.68,1386.17 1873.81,1386.13 1875.94,1386.09 1878.07,1386.04 1880.2,1385.99 1882.32,1385.93 1884.45,1385.87 
  1886.58,1385.79 1888.71,1385.7 1890.84,1385.6 1892.97,1385.48 1895.1,1385.35 1897.22,1385.19 1899.35,1385.01 1901.48,1384.81 1903.61,1384.57 1905.74,1384.29 
  1907.87,1383.96 1910,1383.59 1912.12,1383.16 1914.25,1382.66 1916.38,1382.06 1918.51,1381.35 1920.64,1380.49 1922.77,1379.44 1924.9,1378.16 1927.03,1376.6 
  1929.15,1374.7 1931.28,1372.31 1933.41,1369.4 1935.54,1365.9 1937.67,1361.6 1939.8,1356.24 1941.93,1349.44 1944.05,1340.74 1946.18,1329.57 1948.31,1315.29 
  1950.44,1297.15 1952.57,1274.3 1954.7,1245.79 1956.83,1210.23 1958.96,1166.4 1961.08,1113.62 1963.21,1051.82 1965.34,981.473 1967.47,904.441 1969.6,824.708 
  1971.73,746.459 1973.86,673.876 1975.98,611.137 1978.11,561.792 1980.24,526.81 1982.37,506.092 1984.5,498.895 1986.63,503.825 1988.76,518.839 1990.88,541.245 
  1993.01,568.037 1995.14,598.333 1997.27,631.151 1999.4,665.472 2001.53,700.452 2003.66,735.423 2005.79,769.904 2007.91,803.59 2010.04,836.249 2012.17,867.714 
  2014.3,897.876 2016.43,926.684 2018.56,954.11 2020.69,980.159 2022.81,1004.85 2024.94,1028.2 2027.07,1050.26 2029.2,1071.06 2031.33,1090.66 2033.46,1109.11 
  2035.59,1126.47 2037.72,1142.8 2039.84,1158.13 2041.97,1172.53 2044.1,1186.05 2046.23,1198.73 2048.36,1210.62 2050.49,1221.78 2052.62,1232.24 2054.74,1242.04 
  2056.87,1251.22 2059,1259.83 2061.13,1267.89 2063.26,1275.43 2065.39,1282.5 2067.52,1289.12 2069.65,1295.32 2071.77,1301.12 2073.9,1306.56 2076.03,1311.64 
  2078.16,1316.4 2080.29,1320.86 2082.42,1325.03 2084.55,1328.93 2086.67,1332.58 2088.8,1336 2090.93,1339.2 2093.06,1342.2 2095.19,1345 2097.32,1347.63 
  2099.45,1350.09 2101.57,1352.38 2103.7,1354.54 2105.83,1356.55 2107.96,1358.44 2110.09,1360.2 2112.22,1361.85 2114.35,1363.4 2116.48,1364.85 2118.6,1366.21 
  2120.73,1367.48 2122.86,1368.67 2124.99,1369.79 2127.12,1370.83 2129.25,1371.81 2131.38,1372.72 2133.5,1373.58 2135.63,1374.38 2137.76,1375.14 2139.89,1375.84 
  2142.02,1376.51 2144.15,1377.13 2146.28,1377.71 2148.41,1378.25 2150.53,1378.76 2152.66,1379.24 2154.79,1379.69 2156.92,1380.11 2159.05,1380.51 2161.18,1380.88 
  2163.31,1381.23 2165.43,1381.55 2167.56,1381.86 2169.69,1382.15 2171.82,1382.42 2173.95,1382.67 2176.08,1382.91 2178.21,1383.13 2180.34,1383.34 2182.46,1383.54 
  2184.59,1383.72 2186.72,1383.9 2188.85,1384.06 2190.98,1384.22 2193.11,1384.36 2195.24,1384.5 2197.36,1384.62 2199.49,1384.74 2201.62,1384.86 2203.75,1384.96 
  2205.88,1385.06 2208.01,1385.16 2210.14,1385.24 2212.26,1385.33 2214.39,1385.4 2216.52,1385.48 2218.65,1385.55 2220.78,1385.61 2222.91,1385.67 2225.04,1385.73 
  2227.17,1385.78 2229.29,1385.83 2231.42,1385.88 2233.55,1385.93 2235.68,1385.97 2237.81,1386.01 2239.94,1386.04 2242.07,1386.08 2244.19,1386.11 2246.32,1386.14 
  2248.45,1386.17 2250.58,1386.19 2252.71,1386.22 2254.84,1386.24 2256.97,1386.26 2259.1,1386.28 2261.22,1386.3 2263.35,1386.31 2265.48,1386.33 2267.61,1386.34 
  2269.74,1386.35 2271.87,1386.36 2274,1386.37 2276.12,1386.38 2278.25,1386.38 2280.38,1386.39 2282.51,1386.39 2284.64,1386.39 2286.77,1386.39 2288.9,1386.39 
  2291.02,1386.38 2293.15,1386.38 2295.28,1386.37 2297.41,1386.36 2299.54,1386.35 2301.67,1386.34 2303.8,1386.32 2305.93,1386.3 2308.05,1386.28 2310.18,1386.26 
  2312.31,1386.23 2314.44,1386.2 2316.57,1386.17 2318.7,1386.13 2320.83,1386.09 2322.95,1386.04 2325.08,1385.98 2327.21,1385.91 2329.34,1385.84 2331.47,1385.76 
  2333.6,1385.67 2335.73,1385.56 2337.86,1385.44 2339.98,1385.3 2342.11,1385.15 2344.24,1384.97 2346.37,1384.76 2348.5,1384.52 2350.63,1384.24 2352.76,1383.91 
  
  "/>
<path clip-path="url(#clip500)" d="
M1902.1 348.236 L2281.87 348.236 L2281.87 166.796 L1902.1 166.796  Z
  " fill="#ffffff" fill-rule="evenodd" fill-opacity="1"/>
<polyline clip-path="url(#clip500)" style="stroke:#000000; stroke-width:4; stroke-opacity:1; fill:none" points="
  1902.1,348.236 2281.87,348.236 2281.87,166.796 1902.1,166.796 1902.1,348.236 
  "/>
<polyline clip-path="url(#clip500)" style="stroke:#009af9; stroke-width:4; stroke-opacity:1; fill:none" points="
  1925.72,227.276 2067.49,227.276 
  "/>
<path clip-path="url(#clip500)" d="M 0 0 M2106.31 222.611 Q2105.59 222.195 2104.73 222.01 Q2103.9 221.801 2102.88 221.801 Q2099.27 221.801 2097.32 224.162 Q2095.4 226.5 2095.4 230.898 L2095.4 244.556 L2091.12 244.556 L2091.12 218.63 L2095.4 218.63 L2095.4 222.658 Q2096.75 220.297 2098.9 219.162 Q2101.05 218.005 2104.13 218.005 Q2104.57 218.005 2105.1 218.074 Q2105.63 218.121 2106.28 218.236 L2106.31 222.611 Z" fill="#000000" fill-rule="evenodd" fill-opacity="1" /><path clip-path="url(#clip500)" d="M 0 0 M2122.56 231.523 Q2117.39 231.523 2115.4 232.704 Q2113.41 233.884 2113.41 236.732 Q2113.41 239 2114.89 240.343 Q2116.4 241.662 2118.97 241.662 Q2122.51 241.662 2124.64 239.162 Q2126.79 236.639 2126.79 232.472 L2126.79 231.523 L2122.56 231.523 M2131.05 229.764 L2131.05 244.556 L2126.79 244.556 L2126.79 240.621 Q2125.33 242.982 2123.16 244.116 Q2120.98 245.227 2117.83 245.227 Q2113.85 245.227 2111.49 243.005 Q2109.15 240.759 2109.15 237.009 Q2109.15 232.634 2112.07 230.412 Q2115.01 228.19 2120.82 228.19 L2126.79 228.19 L2126.79 227.773 Q2126.79 224.834 2124.85 223.236 Q2122.93 221.616 2119.43 221.616 Q2117.21 221.616 2115.1 222.148 Q2113 222.681 2111.05 223.746 L2111.05 219.81 Q2113.39 218.908 2115.59 218.468 Q2117.79 218.005 2119.87 218.005 Q2125.5 218.005 2128.27 220.922 Q2131.05 223.838 2131.05 229.764 Z" fill="#000000" fill-rule="evenodd" fill-opacity="1" /><path clip-path="url(#clip500)" d="M 0 0 M2154.13 231.616 Q2154.13 226.917 2152.19 224.255 Q2150.26 221.57 2146.88 221.57 Q2143.51 221.57 2141.56 224.255 Q2139.64 226.917 2139.64 231.616 Q2139.64 236.315 2141.56 239 Q2143.51 241.662 2146.88 241.662 Q2150.26 241.662 2152.19 239 Q2154.13 236.315 2154.13 231.616 M2139.64 222.565 Q2140.98 220.25 2143.02 219.139 Q2145.08 218.005 2147.93 218.005 Q2152.65 218.005 2155.59 221.755 Q2158.55 225.505 2158.55 231.616 Q2158.55 237.727 2155.59 241.477 Q2152.65 245.227 2147.93 245.227 Q2145.08 245.227 2143.02 244.116 Q2140.98 242.982 2139.64 240.667 L2139.64 244.556 L2135.36 244.556 L2135.36 208.537 L2139.64 208.537 L2139.64 222.565 Z" fill="#000000" fill-rule="evenodd" fill-opacity="1" /><path clip-path="url(#clip500)" d="M 0 0 M2181.63 231.616 Q2181.63 226.917 2179.69 224.255 Q2177.76 221.57 2174.38 221.57 Q2171 221.57 2169.06 224.255 Q2167.14 226.917 2167.14 231.616 Q2167.14 236.315 2169.06 239 Q2171 241.662 2174.38 241.662 Q2177.76 241.662 2179.69 239 Q2181.63 236.315 2181.63 231.616 M2167.14 222.565 Q2168.48 220.25 2170.52 219.139 Q2172.58 218.005 2175.43 218.005 Q2180.15 218.005 2183.09 221.755 Q2186.05 225.505 2186.05 231.616 Q2186.05 237.727 2183.09 241.477 Q2180.15 245.227 2175.43 245.227 Q2172.58 245.227 2170.52 244.116 Q2168.48 242.982 2167.14 240.667 L2167.14 244.556 L2162.86 244.556 L2162.86 208.537 L2167.14 208.537 L2167.14 222.565 Z" fill="#000000" fill-rule="evenodd" fill-opacity="1" /><path clip-path="url(#clip500)" d="M 0 0 M2190.52 218.63 L2194.78 218.63 L2194.78 244.556 L2190.52 244.556 L2190.52 218.63 M2190.52 208.537 L2194.78 208.537 L2194.78 213.931 L2190.52 213.931 L2190.52 208.537 Z" fill="#000000" fill-rule="evenodd" fill-opacity="1" /><path clip-path="url(#clip500)" d="M 0 0 M2203.46 211.269 L2203.46 218.63 L2212.23 218.63 L2212.23 221.94 L2203.46 221.94 L2203.46 236.014 Q2203.46 239.185 2204.31 240.088 Q2205.19 240.991 2207.86 240.991 L2212.23 240.991 L2212.23 244.556 L2207.86 244.556 Q2202.93 244.556 2201.05 242.727 Q2199.18 240.875 2199.18 236.014 L2199.18 221.94 L2196.05 221.94 L2196.05 218.63 L2199.18 218.63 L2199.18 211.269 L2203.46 211.269 Z" fill="#000000" fill-rule="evenodd" fill-opacity="1" /><path clip-path="url(#clip500)" d="M 0 0 M2233.23 219.394 L2233.23 223.422 Q2231.42 222.496 2229.48 222.033 Q2227.53 221.57 2225.45 221.57 Q2222.28 221.57 2220.68 222.542 Q2219.11 223.514 2219.11 225.459 Q2219.11 226.94 2220.24 227.797 Q2221.38 228.63 2224.8 229.394 L2226.26 229.718 Q2230.8 230.69 2232.69 232.472 Q2234.62 234.232 2234.62 237.403 Q2234.62 241.014 2231.75 243.121 Q2228.9 245.227 2223.9 245.227 Q2221.81 245.227 2219.55 244.81 Q2217.3 244.417 2214.8 243.607 L2214.8 239.209 Q2217.16 240.435 2219.45 241.06 Q2221.75 241.662 2223.99 241.662 Q2227 241.662 2228.62 240.644 Q2230.24 239.602 2230.24 237.727 Q2230.24 235.991 2229.06 235.065 Q2227.9 234.139 2223.94 233.283 L2222.46 232.935 Q2218.5 232.102 2216.75 230.389 Q2214.99 228.653 2214.99 225.644 Q2214.99 221.986 2217.58 219.996 Q2220.17 218.005 2224.94 218.005 Q2227.3 218.005 2229.38 218.352 Q2231.47 218.699 2233.23 219.394 Z" fill="#000000" fill-rule="evenodd" fill-opacity="1" /><polyline clip-path="url(#clip500)" style="stroke:#e26f46; stroke-width:4; stroke-opacity:1; fill:none" points="
  1925.72,287.756 2067.49,287.756 
  "/>
<path clip-path="url(#clip500)" d="M 0 0 M2107.63 269.017 L2107.63 272.559 L2103.55 272.559 Q2101.26 272.559 2100.36 273.485 Q2099.48 274.411 2099.48 276.818 L2099.48 279.11 L2106.49 279.11 L2106.49 282.42 L2099.48 282.42 L2099.48 305.036 L2095.2 305.036 L2095.2 282.42 L2091.12 282.42 L2091.12 279.11 L2095.2 279.11 L2095.2 277.304 Q2095.2 272.976 2097.21 271.008 Q2099.22 269.017 2103.6 269.017 L2107.63 269.017 Z" fill="#000000" fill-rule="evenodd" fill-opacity="1" /><path clip-path="url(#clip500)" d="M 0 0 M2122.14 282.096 Q2118.71 282.096 2116.72 284.781 Q2114.73 287.443 2114.73 292.096 Q2114.73 296.749 2116.7 299.434 Q2118.69 302.096 2122.14 302.096 Q2125.54 302.096 2127.53 299.411 Q2129.52 296.726 2129.52 292.096 Q2129.52 287.49 2127.53 284.804 Q2125.54 282.096 2122.14 282.096 M2122.14 278.485 Q2127.69 278.485 2130.87 282.096 Q2134.04 285.707 2134.04 292.096 Q2134.04 298.462 2130.87 302.096 Q2127.69 305.707 2122.14 305.707 Q2116.56 305.707 2113.39 302.096 Q2110.24 298.462 2110.24 292.096 Q2110.24 285.707 2113.39 282.096 Q2116.56 278.485 2122.14 278.485 Z" fill="#000000" fill-rule="evenodd" fill-opacity="1" /><path clip-path="url(#clip500)" d="M 0 0 M2158.6 279.11 L2149.22 291.726 L2159.08 305.036 L2154.06 305.036 L2146.51 294.851 L2138.97 305.036 L2133.94 305.036 L2144.01 291.471 L2134.8 279.11 L2139.82 279.11 L2146.7 288.346 L2153.57 279.11 L2158.6 279.11 Z" fill="#000000" fill-rule="evenodd" fill-opacity="1" /><path clip-path="url(#clip500)" d="M 0 0 M2184.27 291.008 L2184.27 293.091 L2164.69 293.091 Q2164.96 297.489 2167.32 299.804 Q2169.71 302.096 2173.94 302.096 Q2176.4 302.096 2178.69 301.494 Q2181 300.892 2183.27 299.689 L2183.27 303.716 Q2180.98 304.688 2178.57 305.198 Q2176.17 305.707 2173.69 305.707 Q2167.49 305.707 2163.85 302.096 Q2160.24 298.485 2160.24 292.327 Q2160.24 285.962 2163.67 282.235 Q2167.12 278.485 2172.95 278.485 Q2178.18 278.485 2181.21 281.865 Q2184.27 285.221 2184.27 291.008 M2180.01 289.758 Q2179.96 286.263 2178.04 284.179 Q2176.14 282.096 2173 282.096 Q2169.43 282.096 2167.28 284.11 Q2165.15 286.124 2164.82 289.781 L2180.01 289.758 Z" fill="#000000" fill-rule="evenodd" fill-opacity="1" /><path clip-path="url(#clip500)" d="M 0 0 M2205.26 279.874 L2205.26 283.902 Q2203.46 282.976 2201.51 282.513 Q2199.57 282.05 2197.49 282.05 Q2194.31 282.05 2192.72 283.022 Q2191.14 283.994 2191.14 285.939 Q2191.14 287.42 2192.28 288.277 Q2193.41 289.11 2196.84 289.874 L2198.3 290.198 Q2202.83 291.17 2204.73 292.952 Q2206.65 294.712 2206.65 297.883 Q2206.65 301.494 2203.78 303.601 Q2200.94 305.707 2195.94 305.707 Q2193.85 305.707 2191.58 305.29 Q2189.34 304.897 2186.84 304.087 L2186.84 299.689 Q2189.2 300.915 2191.49 301.54 Q2193.78 302.142 2196.03 302.142 Q2199.04 302.142 2200.66 301.124 Q2202.28 300.082 2202.28 298.207 Q2202.28 296.471 2201.1 295.545 Q2199.94 294.619 2195.98 293.763 L2194.5 293.415 Q2190.54 292.582 2188.78 290.869 Q2187.02 289.133 2187.02 286.124 Q2187.02 282.466 2189.62 280.476 Q2192.21 278.485 2196.98 278.485 Q2199.34 278.485 2201.42 278.832 Q2203.5 279.179 2205.26 279.874 Z" fill="#000000" fill-rule="evenodd" fill-opacity="1" /></svg>
